<?xml version="1.0" encoding="UTF-8"?>
<svg width="34px" height="50px" viewBox="0 0 34 50" version="1.1" xmlns="http://www.w3.org/2000/svg" xmlns:xlink="http://www.w3.org/1999/xlink">
    <!-- Generator: Sketch 54.1 (76490) - https://sketchapp.com -->
    <title>icon_guess_green</title>
    <desc>Created with Sketch.</desc>
    <g id="主页" stroke="none" stroke-width="1" fill="none" fill-rule="evenodd">
        <path d="M11.6257853,0.379559042 L12.5976579,0.0782536018 C12.719142,0.0405904167 14.5771204,-0.389683507 16.3277201,1.25379072 C18.0426025,2.76259124 18.792665,5.59073971 18.8208757,9.66290978 L18.7351089,9.83524672 C18.7708261,9.96992048 18.2489457,12.4636689 17.2554612,14.6663856 C17.2911784,14.8010593 16.4692276,16.6591022 17.6481242,18.6255661 C18.1697777,18.6095871 19.0558835,18.4806186 20.1849574,18.2763237 L21.5212822,17.8620287 C22.2501866,17.6360497 22.857607,17.4477338 23.186342,17.2000705 C23.186342,17.2000705 24.3297482,16.5540912 25.5445889,16.1774595 C26.8809138,15.7631645 27.9599382,15.8658803 28.7459448,16.350933 C29.460517,16.5666383 30.9610958,17.2673964 31.7041056,19.0775024 C32.1827624,20.3865766 32.1754827,21.8463034 31.6822668,23.4566831 C32.2253054,24.0170622 32.9255452,24.6744519 33.2470006,25.8865156 C33.7613746,27.3302635 33.6683281,28.9623273 32.9321441,30.6480333 C33.4251331,31.5154231 33.9895566,32.6521604 33.9822769,34.1118873 C34.0964814,35.533951 33.653315,36.83732 32.8099793,38.1190047 C33.4886072,40.6778057 33.0595462,44.0172597 30.1866984,46.0738923 L30.0652143,46.1115555 C29.9437303,46.1492187 27.1352643,47.4571562 23.8551942,48.474062 C21.4255128,49.2273255 19.288849,49.5982521 17.4452029,49.5868417 C16.644864,49.5434733 14.4010484,49.5103787 13.1862077,49.8870105 L12.8217554,50 C8.49990385,49.0749646 5.1185677,46.5355478 2.67774696,42.3817495 C0.236926218,38.2279512 -0.535251262,33.6989022 0.361214518,28.7946026 C0.59643001,27.324236 0.782757955,26.6160508 1.0922644,25.6731606 C1.22808076,25.193813 2.46284184,20.8556941 5.22148516,17.3769978 C5.51450288,16.9946608 7.887309,13.0525959 9.15242625,9.89118404 L9.45977624,9.06716268 C10.6247943,6.5197721 10.5890771,6.38509839 11.4756367,1.30059102 L11.6257853,0.379559042 Z" id="icon_guess_green" fill="#03C461" fill-rule="nonzero" transform="translate(17.000000, 25.000000) scale(-1, 1) translate(-17.000000, -25.000000) "></path>
    </g>
</svg>