<?xml version="1.0" encoding="UTF-8"?>
<svg width="34px" height="50px" viewBox="0 0 34 50" version="1.1" xmlns="http://www.w3.org/2000/svg" xmlns:xlink="http://www.w3.org/1999/xlink">
    <!-- Generator: Sketch 54.1 (76490) - https://sketchapp.com -->
    <title>icon_guess_red</title>
    <desc>Created with Sketch.</desc>
    <g id="主页" stroke="none" stroke-width="1" fill="none" fill-rule="evenodd">
        <path d="M30.7598478,11.9548391 C29.0652736,11.6511237 27.403102,11.9992341 25.7733332,12.9991703 C23.7466986,14.2426014 23.1521541,16.0530155 22.2960593,16.0930892 C20.2855773,16.1871995 12.4795839,11.4069758 18.2887437,0.2711221 C18.3239195,0.203269139 18.3137946,0.118752468 18.2601276,0.0610509955 C18.2100258,0.00215280871 18.1245106,-0.0164266743 18.0576286,0.0154166901 C17.9305675,0.0665100345 9.63862207,3.49977661 10.154655,14.9659234 C10.3386541,19.0543466 10.7281032,19.8898681 9.63862207,18.9987873 C8.54471571,18.1040872 8.75058709,15.8449509 4.80323224,13.5317084 C4.74281533,13.4961779 4.66400254,13.4992904 4.60562951,13.5433924 C4.54369164,13.5890745 4.51864072,13.6619073 4.53665624,13.7362248 C4.54853997,13.8038382 6.02682837,20.6110171 3.43541629,23.7598077 C1.19884845,26.4790957 -0.836298502,34.1156872 0.348939878,38.4975428 C1.34327654,42.1606398 4.29237486,47.0490092 9.42336122,48.8978816 C10.7389372,49.3070101 13.0957868,49.9436099 16.5556463,49.9968088 C20.0155058,50.0500076 22.4045679,49.42477 23.4813978,49.1140382 C26.8308995,47.99315 30.7090286,45.2389312 32.6243618,40.9973832 C34.539695,36.7558352 34.3791987,31.6516689 32.6129422,27.3814849 C29.0640248,19.6146147 28.4463267,14.4723994 30.7598478,11.9548391 Z" id="icon_guess_red" fill="#FF464B" fill-rule="nonzero"></path>
    </g>
</svg>