<?xml version="1.0" encoding="UTF-8"?>
<svg width="60px" height="60px" viewBox="0 0 60 60" version="1.1" xmlns="http://www.w3.org/2000/svg" xmlns:xlink="http://www.w3.org/1999/xlink">
    <!-- Generator: Sketch 54.1 (76490) - https://sketchapp.com -->
    <title>icon_faq_Q</title>
    <desc>Created with Sketch.</desc>
    <g id="主页" stroke="none" stroke-width="1" fill="none" fill-rule="evenodd">
        <g id="icon_faq_Q">
            <circle id="Oval" fill="#FF787B" cx="30" cy="30" r="30"></circle>
            <path d="M36.2102846,38.6244982 C34.5077524,40.1105585 32.352352,41 30,41 C24.4522874,41 20,36.053014 20,30 C20,23.946986 24.4522874,19 30,19 C35.5477126,19 40,23.946986 40,30 C40,32.7337404 39.0918567,35.2418818 37.5848063,37.1705927 L39.7781746,39.363961 C40.1686989,39.7544853 40.1686989,40.3876503 39.7781746,40.7781746 C39.3876503,41.1686989 38.7544853,41.1686989 38.363961,40.7781746 L36.2102846,38.6244982 Z M36.1579742,35.7437607 C37.3067876,34.188334 38,32.1888639 38,30 C38,25.007319 34.3934129,21 30,21 C25.6065871,21 22,25.007319 22,30 C22,34.992681 25.6065871,39 30,39 C31.791717,39 33.452572,38.3335176 34.7913093,37.2055229 L32.7071068,35.1213203 C32.3165825,34.7307961 32.3165825,34.0976311 32.7071068,33.7071068 C33.0976311,33.3165825 33.7307961,33.3165825 34.1213203,33.7071068 L36.1579742,35.7437607 Z" id="Combined-Shape" fill="#FFFFFF" fill-rule="nonzero"></path>
        </g>
    </g>
</svg>