<?xml version="1.0" encoding="UTF-8"?>
<svg width="60px" height="60px" viewBox="0 0 60 60" version="1.1" xmlns="http://www.w3.org/2000/svg" xmlns:xlink="http://www.w3.org/1999/xlink">
    <!-- Generator: Sketch 54.1 (76490) - https://sketchapp.com -->
    <title>icon_faq_A</title>
    <desc>Created with Sketch.</desc>
    <g id="主页" stroke="none" stroke-width="1" fill="none" fill-rule="evenodd">
        <g id="icon_faq_A">
            <circle id="Oval-Copy" fill="#3AAAFF" cx="30" cy="30" r="30"></circle>
            <path d="M26.4862274,30.0000003 L33.4036556,30.0000003 L29.9887227,22.4112606 L26.4862274,30.0000003 Z M34.2851308,31.9588342 C34.1948432,31.9856198 34.0992215,32.0000003 34.0002412,32.0000003 L26.0002412,32.0000003 C25.8584432,32.0000003 25.7235384,31.9704872 25.6013344,31.9172685 L21.9082005,39.9190585 C21.6767611,40.4205106 21.0826351,40.6393992 20.581183,40.4079597 C20.0797309,40.1765203 19.8608423,39.5823943 20.0922818,39.0809422 L29.0922818,19.5809422 C29.4516682,18.8022716 30.5602318,18.8075671 30.9121627,19.5896357 L39.9121627,39.5896357 C40.1388008,40.093276 39.9142462,40.6852837 39.4106058,40.9119219 C38.9069655,41.13856 38.3149578,40.9140054 38.0883197,40.410365 L34.2851308,31.9588342 Z" id="Combined-Shape" fill="#FFFFFF" fill-rule="nonzero"></path>
        </g>
    </g>
</svg>