<?xml version="1.0" encoding="UTF-8"?>
<svg width="200px" height="200px" viewBox="0 0 200 200" version="1.1" xmlns="http://www.w3.org/2000/svg" xmlns:xlink="http://www.w3.org/1999/xlink">
    <!-- Generator: Sketch 54.1 (76490) - https://sketchapp.com -->
    <title>img_nomessage</title>
    <desc>Created with Sketch.</desc>
    <g id="主页" stroke="none" stroke-width="1" fill="none" fill-rule="evenodd">
        <g id="img_nomessage">
            <rect id="Rectangle" x="0" y="0" width="200" height="200"></rect>
            <g id="Group-5-Copy-7" transform="translate(12.000000, 22.000000)">
                <path d="M87.75,57 L131.5,57 C135.089851,57 138,59.9101491 138,63.5 C138,66.9216149 135.356224,69.7257427 132,69.9810552 L132,65 C132,60.581722 128.418278,57 124,57 L87.75,57 Z M132,70 L144,70 C147.313708,70 150,72.6862915 150,76 C150,79.3137085 147.313708,82 144,82 L161,82 C164.313708,82 167,84.6862915 167,88 C167,91.3137085 164.313708,94 161,94 L146,94 C149.313708,94 152,96.6862915 152,100 C152,103.313708 149.313708,106 146,106 L154,106 C157.313708,106 160,108.686292 160,112 C160,115.313708 157.313708,118 154,118 L130.245371,118 C131.343282,116.630402 132,114.891893 132,113 L132,70 Z M42,118 L30,118 C26.6862915,118 24,115.313708 24,112 C24,108.686292 26.6862915,106 30,106 L15,106 C11.6862915,106 9,103.313708 9,100 C9,96.6862915 11.6862915,94 15,94 L23,94 C19.6862915,94 17,91.3137085 17,88 C17,84.6862915 19.6862915,82 23,82 L34,82 C30.6862915,82 28,79.3137085 28,76 C28,72.6862915 30.6862915,70 34,70 L42,70 L42,118 Z" id="Combined-Shape" fill="#FF787B" opacity="0.200000003"></path>
                <path d="M38,157 C37.4477153,157 37,156.552285 37,156 C37,155.447715 37.4477153,155 38,155 L63.4770545,155 C64.0293393,155 64.4770545,155.447715 64.4770545,156 C64.4770545,156.552285 64.0293393,157 63.4770545,157 L38,157 Z M68.41995,157 C67.8676653,157 67.41995,156.552285 67.41995,156 C67.41995,155.447715 67.8676653,155 68.41995,155 L88.8365171,155 C89.3888018,155 89.8365171,155.447715 89.8365171,156 C89.8365171,156.552285 89.3888018,157 88.8365171,157 L68.41995,157 Z M93.5388414,157 C92.9865566,157 92.5388414,156.552285 92.5388414,156 C92.5388414,155.447715 92.9865566,155 93.5388414,155 L136,155 C136.552285,155 137,155.447715 137,156 C137,156.552285 136.552285,157 136,157 L93.5388414,157 Z" id="Line" fill="#FF787B" fill-rule="nonzero"></path>
                <g id="Group-15" transform="translate(42.000000, 57.000000)">
                    <path d="M8,1 C4.13400675,1 1,4.13400675 1,8 L1,73.527864 C1,73.9935993 1.10843528,74.4529385 1.31671843,74.8695048 C2.05768617,76.3514403 3.85970529,76.9521134 5.34164079,76.2111456 L29.8636215,63.9501553 C31.1133204,63.3253058 32.491338,63 33.8885438,63 L82,63 C85.8659932,63 89,59.8659932 89,56 L89,8 C89,4.13400675 85.8659932,1 82,1 L8,1 Z" id="Rectangle-15" stroke="#FF787B" stroke-width="2"></path>
                    <path d="M22,31 L36,31 C36.5522847,31 37,31.4477153 37,32 C37,32.5522847 36.5522847,33 36,33 L22,33 C21.4477153,33 21,32.5522847 21,32 C21,31.4477153 21.4477153,31 22,31 Z M54,31 L68,31 C68.5522847,31 69,31.4477153 69,32 C69,32.5522847 68.5522847,33 68,33 L54,33 C53.4477153,33 53,32.5522847 53,32 C53,31.4477153 53.4477153,31 54,31 Z" id="Combined-Shape" fill="#FF787B"></path>
                    <path d="M16,6 L90,6 C94.418278,6 98,9.581722 98,14 L98,62 C98,66.418278 94.418278,70 90,70 L41.8885438,70 C40.6465831,70 39.4216785,70.2891607 38.3108351,70.8445825 L13.7888544,83.1055728 C11.8129404,84.0935298 9.41024823,83.2926324 8.42229124,81.3167184 C8.14458037,80.7612967 8,80.1488444 8,79.527864 L8,14 C8,9.581722 11.581722,6 16,6 Z" id="Rectangle-15" fill="#FF787B" opacity="0.300000012"></path>
                </g>
                <g id="Group" fill="#FF787B">
                    <path d="M36,26 L36,24 C36,23.4477153 36.4477153,23 37,23 C37.5522847,23 38,23.4477153 38,24 L38,26 L40,26 C40.5522847,26 41,26.4477153 41,27 C41,27.5522847 40.5522847,28 40,28 L38,28 L38,30 C38,30.5522847 37.5522847,31 37,31 C36.4477153,31 36,30.5522847 36,30 L36,28 L34,28 C33.4477153,28 33,27.5522847 33,27 C33,26.4477153 33.4477153,26 34,26 L36,26 Z" id="Combined-Shape"></path>
                    <path d="M171,65 L171,63 C171,62.4477153 171.447715,62 172,62 C172.552285,62 173,62.4477153 173,63 L173,65 L175,65 C175.552285,65 176,65.4477153 176,66 C176,66.5522847 175.552285,67 175,67 L173,67 L173,69 C173,69.5522847 172.552285,70 172,70 C171.447715,70 171,69.5522847 171,69 L171,67 L169,67 C168.447715,67 168,66.5522847 168,66 C168,65.4477153 168.447715,65 169,65 L171,65 Z" id="Combined-Shape-Copy-5" opacity="0.699999988"></path>
                    <path d="M2,29 L2,27.5 C2,27.2238576 2.22385763,27 2.5,27 C2.77614237,27 3,27.2238576 3,27.5 L3,29 L4.5,29 C4.77614237,29 5,29.2238576 5,29.5 C5,29.7761424 4.77614237,30 4.5,30 L3,30 L3,31.5 C3,31.7761424 2.77614237,32 2.5,32 C2.22385763,32 2,31.7761424 2,31.5 L2,30 L0.5,30 C0.223857625,30 3.38176876e-17,29.7761424 0,29.5 C-3.38176876e-17,29.2238576 0.223857625,29 0.5,29 L2,29 Z" id="Combined-Shape-Copy" opacity="0.699999988"></path>
                    <path d="M133,73 L133,71.5 C133,71.2238576 133.223858,71 133.5,71 C133.776142,71 134,71.2238576 134,71.5 L134,73 L135.5,73 C135.776142,73 136,73.2238576 136,73.5 C136,73.7761424 135.776142,74 135.5,74 L134,74 L134,75.5 C134,75.7761424 133.776142,76 133.5,76 C133.223858,76 133,75.7761424 133,75.5 L133,74 L131.5,74 C131.223858,74 131,73.7761424 131,73.5 C131,73.2238576 131.223858,73 131.5,73 L133,73 Z" id="Combined-Shape-Copy-7" opacity="0.5"></path>
                    <path d="M53,34 L53,32.5 C53,32.2238576 53.2238576,32 53.5,32 C53.7761424,32 54,32.2238576 54,32.5 L54,34 L55.5,34 C55.7761424,34 56,34.2238576 56,34.5 C56,34.7761424 55.7761424,35 55.5,35 L54,35 L54,36.5 C54,36.7761424 53.7761424,37 53.5,37 C53.2238576,37 53,36.7761424 53,36.5 L53,35 L51.5,35 C51.2238576,35 51,34.7761424 51,34.5 C51,34.2238576 51.2238576,34 51.5,34 L53,34 Z" id="Combined-Shape-Copy-4" opacity="0.699999988"></path>
                    <path d="M150,20 L150,18.5 C150,18.2238576 150.223858,18 150.5,18 C150.776142,18 151,18.2238576 151,18.5 L151,20 L152.5,20 C152.776142,20 153,20.2238576 153,20.5 C153,20.7761424 152.776142,21 152.5,21 L151,21 L151,22.5 C151,22.7761424 150.776142,23 150.5,23 C150.223858,23 150,22.7761424 150,22.5 L150,21 L148.5,21 C148.223858,21 148,20.7761424 148,20.5 C148,20.2238576 148.223858,20 148.5,20 L150,20 Z" id="Combined-Shape-Copy-6"></path>
                    <path d="M33,60 L33,59.5 C33,59.2238576 33.2238576,59 33.5,59 C33.7761424,59 34,59.2238576 34,59.5 L34,60 L34.5,60 C34.7761424,60 35,60.2238576 35,60.5 C35,60.7761424 34.7761424,61 34.5,61 L34,61 L34,61.5 C34,61.7761424 33.7761424,62 33.5,62 C33.2238576,62 33,61.7761424 33,61.5 L33,61 L32.5,61 C32.2238576,61 32,60.7761424 32,60.5 C32,60.2238576 32.2238576,60 32.5,60 L33,60 Z" id="Combined-Shape-Copy-3"></path>
                    <path d="M136,47 L136,46.5 C136,46.2238576 136.223858,46 136.5,46 C136.776142,46 137,46.2238576 137,46.5 L137,47 L137.5,47 C137.776142,47 138,47.2238576 138,47.5 C138,47.7761424 137.776142,48 137.5,48 L137,48 L137,48.5 C137,48.7761424 136.776142,49 136.5,49 C136.223858,49 136,48.7761424 136,48.5 L136,48 L135.5,48 C135.223858,48 135,47.7761424 135,47.5 C135,47.2238576 135.223858,47 135.5,47 L136,47 Z" id="Combined-Shape-Copy-8"></path>
                    <path d="M4,72 L4,71.2 C4,71.0895431 4.08954305,71 4.2,71 C4.31045695,71 4.4,71.0895431 4.4,71.2 L4.4,72 L4.8,72 C4.91045695,72 5,72.0895431 5,72.2 C5,72.3104569 4.91045695,72.4 4.8,72.4 L4.4,72.4 L4.4,72.8 C4.4,72.9104569 4.31045695,73 4.2,73 C4.08954305,73 4,72.9104569 4,72.8 L4,72.4 L3.2,72.4 C3.08954305,72.4 3,72.3104569 3,72.2 C3,72.0895431 3.08954305,72 3.2,72 L4,72 Z" id="Combined-Shape-Copy-2"></path>
                    <path d="M120,55 L120,54.2 C120,54.0895431 120.089543,54 120.2,54 C120.310457,54 120.4,54.0895431 120.4,54.2 L120.4,55 L120.8,55 C120.910457,55 121,55.0895431 121,55.2 C121,55.3104569 120.910457,55.4 120.8,55.4 L120.4,55.4 L120.4,55.8 C120.4,55.9104569 120.310457,56 120.2,56 C120.089543,56 120,55.9104569 120,55.8 L120,55.4 L119.2,55.4 C119.089543,55.4 119,55.3104569 119,55.2 C119,55.0895431 119.089543,55 119.2,55 L120,55 Z" id="Combined-Shape-Copy-11"></path>
                    <path d="M85,1 L85,0.2 C85,0.08954305 85.0895431,2.02906125e-17 85.2,0 C85.3104569,-2.02906125e-17 85.4,0.08954305 85.4,0.2 L85.4,1 L85.8,1 C85.9104569,1 86,1.08954305 86,1.2 C86,1.31045695 85.9104569,1.4 85.8,1.4 L85.4,1.4 L85.4,1.8 C85.4,1.91045695 85.3104569,2 85.2,2 C85.0895431,2 85,1.91045695 85,1.8 L85,1.4 L84.2,1.4 C84.0895431,1.4 84,1.31045695 84,1.2 C84,1.08954305 84.0895431,1 84.2,1 L85,1 Z" id="Combined-Shape-Copy-10"></path>
                </g>
            </g>
        </g>
    </g>
</svg>