<?xml version="1.0" encoding="UTF-8"?>
<svg width="100px" height="100px" viewBox="0 0 100 100" version="1.1" xmlns="http://www.w3.org/2000/svg" xmlns:xlink="http://www.w3.org/1999/xlink">
    <!-- Generator: Sketch 54.1 (76490) - https://sketchapp.com -->
    <title>icon_query_day_entrust</title>
    <desc>Created with Sketch.</desc>
    <g id="交易" stroke="none" stroke-width="1" fill="none" fill-rule="evenodd">
        <g id="icon_query_day_entrust">
            <rect id="Rectangle-Copy" x="0" y="0" width="100" height="100"></rect>
            <path d="M22,5 L25.7209302,5 L74.2790698,5 L78,5 C82.418278,5 86,8.581722 86,13 L86,87 C86,91.418278 82.418278,95 78,95 L22,95 C17.581722,95 14,91.418278 14,87 L14,13 C14,8.581722 17.581722,5 22,5 Z" id="Rectangle" fill="#FFFFFF"></path>
            <path d="M29,10 L32.7209302,10 L81.2790698,10 L85,10 C89.418278,10 93,13.581722 93,18 L93,92 C93,96.418278 89.418278,100 85,100 L29,100 C24.581722,100 21,96.418278 21,92 L21,18 C21,13.581722 24.581722,10 29,10 Z" id="Rectangle-Copy-25" fill="#FF787B" opacity="0.149999991"></path>
            <path d="M66.6277363,65.5307957 L67.5268024,65 L68.4258686,66.592387 L70.1025028,67.5822476 L69.5436247,68.5721083 L75.1025028,78.4177524 L71.6529698,77.4725841 L70.7286702,81 L66.6277363,73.7366036 L62.5268024,81 L61.6025028,77.4725841 L58.1529698,78.4177524 L63.7118479,68.5721083 L63.1529698,67.5822476 L64.829604,66.592387 L65.7286702,65 L66.6277363,65.5307957 Z" id="Combined-Shape" stroke="#FF787B" stroke-width="2" fill="#FFBBBD" stroke-linejoin="round"></path>
            <circle id="Oval" stroke="#FF787B" stroke-width="2" fill="#FF9C9E" cx="66.5" cy="64.5" r="8.5"></circle>
            <path d="M25,54 L50,54 C50.5522847,54 51,54.4477153 51,55 C51,55.5522847 50.5522847,56 50,56 L25,56 C24.4477153,56 24,55.5522847 24,55 C24,54.4477153 24.4477153,54 25,54 Z M25,62 L50,62 C50.5522847,62 51,62.4477153 51,63 C51,63.5522847 50.5522847,64 50,64 L25,64 C24.4477153,64 24,63.5522847 24,63 C24,62.4477153 24.4477153,62 25,62 Z M25,71 L50,71 C50.5522847,71 51,71.4477153 51,72 C51,72.5522847 50.5522847,73 50,73 L25,73 C24.4477153,73 24,72.5522847 24,72 C24,71.4477153 24.4477153,71 25,71 Z M25,79 L50,79 C50.5522847,79 51,79.4477153 51,80 C51,80.5522847 50.5522847,81 50,81 L25,81 C24.4477153,81 24,80.5522847 24,80 C24,79.4477153 24.4477153,79 25,79 Z" id="Combined-Shape" fill="#FF787B"></path>
            <path d="M74.2790698,5 L79.3023256,5 C83.001349,5 86,7.98476833 86,11.6666667 L86,88.3333333 C86,92.0152317 83.001349,95 79.3023256,95 L20.6976744,95 C16.998651,95 14,92.0152317 14,88.3333333 L14,11.6666667 C14,7.98476833 16.998651,5 20.6976744,5 L20.6976744,5 L25.7209302,5" id="Path" stroke="#FF787B" stroke-width="2" stroke-linecap="round"></path>
            <rect id="Rectangle" stroke="#FF787B" stroke-width="2" x="31" y="1" width="38" height="6" rx="3"></rect>
            <path d="M35.7330691,35.9225767 C38.2707084,37.2638576 40,39.92998 40,43 C40,43.5522847 39.5522847,44 39,44 C38.4477153,44 38,43.5522847 38,43 C38,39.6862915 35.3137085,37 32,37 C28.6862915,37 26,39.6862915 26,43 C26,43.5522847 25.5522847,44 25,44 C24.4477153,44 24,43.5522847 24,43 C24,39.92998 25.7292916,37.2638576 28.2669309,35.9225767 C26.303827,34.6826097 25,32.4935674 25,30 C25,26.1340068 28.1340068,23 32,23 C35.8659932,23 39,26.1340068 39,30 C39,32.4935674 37.696173,34.6826097 35.7330691,35.9225767 Z M32,35 C34.7614237,35 37,32.7614237 37,30 C37,27.2385763 34.7614237,25 32,25 C29.2385763,25 27,27.2385763 27,30 C27,32.7614237 29.2385763,35 32,35 Z M49,27 L67,27 C67.5522847,27 68,27.4477153 68,28 C68,28.5522847 67.5522847,29 67,29 L49,29 C48.4477153,29 48,28.5522847 48,28 C48,27.4477153 48.4477153,27 49,27 Z M49,37 L75,37 C75.5522847,37 76,37.4477153 76,38 C76,38.5522847 75.5522847,39 75,39 L49,39 C48.4477153,39 48,38.5522847 48,38 C48,37.4477153 48.4477153,37 49,37 Z" id="Combined-Shape" fill="#FF787B" fill-rule="nonzero"></path>
        </g>
    </g>
</svg>