<?xml version="1.0" encoding="UTF-8"?>
<svg width="100px" height="100px" viewBox="0 0 100 100" version="1.1" xmlns="http://www.w3.org/2000/svg" xmlns:xlink="http://www.w3.org/1999/xlink">
    <!-- Generator: Sketch 54.1 (76490) - https://sketchapp.com -->
    <title>icon_query_day_deal</title>
    <desc>Created with Sketch.</desc>
    <g id="交易" stroke="none" stroke-width="1" fill="none" fill-rule="evenodd">
        <g id="icon_query_day_deal">
            <rect id="Rectangle-Copy" x="0" y="0" width="100" height="100"></rect>
            <path d="M22,5 L25.7209302,5 L74.2790698,5 L78,5 C82.418278,5 86,8.581722 86,13 L86,87 C86,91.418278 82.418278,95 78,95 L22,95 C17.581722,95 14,91.418278 14,87 L14,13 C14,8.581722 17.581722,5 22,5 Z" id="Rectangle" fill="#FFFFFF"></path>
            <path d="M29,10 L32.7209302,10 L81.2790698,10 L85,10 C89.418278,10 93,13.581722 93,18 L93,92 C93,96.418278 89.418278,100 85,100 L29,100 C24.581722,100 21,96.418278 21,92 L21,18 C21,13.581722 24.581722,10 29,10 Z" id="Rectangle-Copy-25" fill="#FF787B" opacity="0.149999991"></path>
            <path d="M35.7330691,30.9225767 C38.2707084,32.2638576 40,34.92998 40,38 C40,38.5522847 39.5522847,39 39,39 C38.4477153,39 38,38.5522847 38,38 C38,34.6862915 35.3137085,32 32,32 C28.6862915,32 26,34.6862915 26,38 C26,38.5522847 25.5522847,39 25,39 C24.4477153,39 24,38.5522847 24,38 C24,34.92998 25.7292916,32.2638576 28.2669309,30.9225767 C26.303827,29.6826097 25,27.4935674 25,25 C25,21.1340068 28.1340068,18 32,18 C35.8659932,18 39,21.1340068 39,25 C39,27.4935674 37.696173,29.6826097 35.7330691,30.9225767 Z M32,30 C34.7614237,30 37,27.7614237 37,25 C37,22.2385763 34.7614237,20 32,20 C29.2385763,20 27,22.2385763 27,25 C27,27.7614237 29.2385763,30 32,30 Z M49,22 L67,22 C67.5522847,22 68,22.4477153 68,23 C68,23.5522847 67.5522847,24 67,24 L49,24 C48.4477153,24 48,23.5522847 48,23 C48,22.4477153 48.4477153,22 49,22 Z M49,32 L75,32 C75.5522847,32 76,32.4477153 76,33 C76,33.5522847 75.5522847,34 75,34 L49,34 C48.4477153,34 48,33.5522847 48,33 C48,32.4477153 48.4477153,32 49,32 Z" id="Combined-Shape" fill="#FF787B" fill-rule="nonzero"></path>
            <g id="Group-17" transform="translate(52.500000, 70.506097) rotate(-45.000000) translate(-52.500000, -70.506097) translate(41.000000, 53.006097)" fill="#FFBBBD" stroke="#FF787B" stroke-width="2">
                <rect id="Rectangle" x="2" y="2" width="20" height="8"></rect>
                <rect id="Rectangle" x="0" y="0" width="4" height="12" rx="2"></rect>
                <rect id="Rectangle-Copy-18" x="20" y="0" width="4" height="12" rx="2"></rect>
                <path d="M10,10 L14,10 L14,33 C14,34.1045695 13.1045695,35 12,35 L12,35 C10.8954305,35 10,34.1045695 10,33 L10,10 Z" id="Rectangle"></path>
            </g>
            <path d="M74.2790698,5 L79.3023256,5 C83.001349,5 86,7.98476833 86,11.6666667 L86,88.3333333 C86,92.0152317 83.001349,95 79.3023256,95 L20.6976744,95 C16.998651,95 14,92.0152317 14,88.3333333 L14,11.6666667 C14,7.98476833 16.998651,5 20.6976744,5 L20.6976744,5 L25.7209302,5" id="Path" stroke="#FF787B" stroke-width="2" stroke-linecap="round"></path>
            <rect id="Rectangle" stroke="#FF787B" stroke-width="2" x="31" y="1" width="38" height="6" rx="3"></rect>
        </g>
    </g>
</svg>