<?xml version="1.0" encoding="UTF-8"?>
<svg width="100px" height="100px" viewBox="0 0 100 100" version="1.1" xmlns="http://www.w3.org/2000/svg" xmlns:xlink="http://www.w3.org/1999/xlink">
    <!-- Generator: Sketch 54.1 (76490) - https://sketchapp.com -->
    <title>icon_deal_sell</title>
    <desc>Created with Sketch.</desc>
    <g id="交易" stroke="none" stroke-width="1" fill="none" fill-rule="evenodd">
        <g id="icon_deal_sell">
            <circle id="Oval-Copy" stroke="#3AAAFF" stroke-width="2" fill="#E2F2FF" cx="50" cy="50" r="49"></circle>
            <path d="M68,42 L68,45 C68,47.209139 66.209139,49 64,49 L64,43 L55.8240291,43 C55.2868593,48.5956253 54.4745657,52.9289586 53.3871484,56 L70,56 C70,58.209139 68.209139,60 66,60 L55.4577301,60 C58.8976839,63.5339741 63.4107073,65.8112966 68.9968003,66.8319675 C69.0022675,66.8329665 69.0077262,66.834011 69.0131759,66.8351009 C69.5547408,66.9434139 69.9059608,67.4702439 69.7976478,68.0118088 L69.2262069,70.8689656 C69.2165865,70.9170677 69.2034396,70.9643967 69.1868729,71.0105693 C69.0003558,71.5304035 68.4277449,71.8006104 67.9079095,71.6140967 C63.1555668,69.9089509 59.8529303,68.3709186 58,67 C55.8041884,65.4569701 53.6828734,63.1236368 51.6360551,60 L51.4414404,60 C48.1075261,65.5022366 40.8905186,70.229534 32,72 C30.8659012,72.0840116 30.4923794,71.4790284 32,71 C39.5973328,67.2419991 44.6821416,63.3391569 46.9526453,60 L31,60 C30.4477153,60 30,59.5522847 30,59 L30,57 C30,56.4477153 30.4477153,56 31,56 L48.6944431,56 C49.594846,52.9577 50.3056973,48.6243667 50.8269969,43 L33,43 C32.4477153,43 32,42.5522847 32,42 L32,40 C32,39.4477153 32.4477153,39 33,39 L48,39 L48,35.9991194 L37,35.9991194 C36.4477153,35.9991194 36,35.5514042 36,34.9991194 L36,32.9991194 C36,32.4468347 36.4477153,31.9991194 37,31.9991194 L48,31.9991194 L48,29 C48,28.4477153 48.4477153,28 49,28 L51,28 C51.5522847,28 52,28.4477153 52,29 L52,31.9991194 L63,31.9991194 C63.5522847,31.9991194 64,32.4468347 64,32.9991194 L64,34.9991194 C64,35.5514042 63.5522847,35.9991194 63,35.9991194 L52,35.9991194 C52,37.1946925 51.4762451,38.2670555 50.6458244,39 L67,39 C67.5522847,39 68,39.4477153 68,40 L68,42 Z M36,49 C40.3194462,48.5087188 44.0460945,49.6788687 47,53 L43,55 C41.9186702,51.6064244 37.6956062,50.1520348 36,50 C34.8048084,50.1520348 34.6505232,49.3577558 36,49 Z M38,44 C42.3194462,43.5087188 46.0460945,44.6788687 49,48 L45,50 C43.9186702,46.6064244 39.6956062,45.1520348 38,45 C36.8048084,45.1520348 36.6505232,44.3577558 38,44 Z" id="Combined-Shape" fill="#3AAAFF"></path>
        </g>
    </g>
</svg>