<?xml version="1.0" encoding="UTF-8"?>
<svg width="100px" height="100px" viewBox="0 0 100 100" version="1.1" xmlns="http://www.w3.org/2000/svg" xmlns:xlink="http://www.w3.org/1999/xlink">
    <!-- Generator: Sketch 54.1 (76490) - https://sketchapp.com -->
    <title>icon_query_history_entrust</title>
    <desc>Created with Sketch.</desc>
    <defs>
        <path d="M8.27288228,0.446522937 L10.0403241,0.446522937 L50.5054404,0.446522937 L52.2728823,0.446522937 C56.6911603,0.446522937 60.2728823,4.02824494 60.2728823,8.44652294 L60.2728823,76.4465229 C60.2728823,80.8648009 56.6911603,84.4465229 52.2728823,84.4465229 L8.27288228,84.4465229 C3.85460428,84.4465229 0.272882277,80.8648009 0.272882277,76.4465229 L0.272882277,8.44652294 C0.272882277,4.02824494 3.85460428,0.446522937 8.27288228,0.446522937 Z" id="path-1"></path>
        <path d="M8.27288228,0.446522937 L10.0403241,0.446522937 L50.5054404,0.446522937 L52.2728823,0.446522937 C56.6911603,0.446522937 60.2728823,4.02824494 60.2728823,8.44652294 L60.2728823,76.4465229 C60.2728823,80.8648009 56.6911603,84.4465229 52.2728823,84.4465229 L8.27288228,84.4465229 C3.85460428,84.4465229 0.272882277,80.8648009 0.272882277,76.4465229 L0.272882277,8.44652294 C0.272882277,4.02824494 3.85460428,0.446522937 8.27288228,0.446522937 Z" id="path-3"></path>
        <path d="M8.48244723,0.626318132 L10.2498891,0.626318132 L50.7150054,0.626318132 L52.4824472,0.626318132 C56.9007252,0.626318132 60.4824472,4.20804013 60.4824472,8.62631813 L60.4824472,76.6263181 C60.4824472,81.0445961 56.9007252,84.6263181 52.4824472,84.6263181 L8.48244723,84.6263181 C4.06416923,84.6263181 0.482447231,81.0445961 0.482447231,76.6263181 L0.482447231,8.62631813 C0.482447231,4.20804013 4.06416923,0.626318132 8.48244723,0.626318132 Z" id="path-5"></path>
        <path d="M8.48244723,0.626318132 L10.2498891,0.626318132 L50.7150054,0.626318132 L52.4824472,0.626318132 C56.9007252,0.626318132 60.4824472,4.20804013 60.4824472,8.62631813 L60.4824472,76.6263181 C60.4824472,81.0445961 56.9007252,84.6263181 52.4824472,84.6263181 L8.48244723,84.6263181 C4.06416923,84.6263181 0.482447231,81.0445961 0.482447231,76.6263181 L0.482447231,8.62631813 C0.482447231,4.20804013 4.06416923,0.626318132 8.48244723,0.626318132 Z" id="path-7"></path>
        <path d="M8.33333333,0.166666667 L10.1007752,0.166666667 L50.5658915,0.166666667 L52.3333333,0.166666667 C56.7516113,0.166666667 60.3333333,3.74838867 60.3333333,8.16666667 L60.3333333,76.1666667 C60.3333333,80.5849447 56.7516113,84.1666667 52.3333333,84.1666667 L8.33333333,84.1666667 C3.91505533,84.1666667 0.333333333,80.5849447 0.333333333,76.1666667 L0.333333333,8.16666667 C0.333333333,3.74838867 3.91505533,0.166666667 8.33333333,0.166666667 Z" id="path-9"></path>
        <path d="M8.33333333,0.166666667 L10.1007752,0.166666667 L50.5658915,0.166666667 L52.3333333,0.166666667 C56.7516113,0.166666667 60.3333333,3.74838867 60.3333333,8.16666667 L60.3333333,76.1666667 C60.3333333,80.5849447 56.7516113,84.1666667 52.3333333,84.1666667 L8.33333333,84.1666667 C3.91505533,84.1666667 0.333333333,80.5849447 0.333333333,76.1666667 L0.333333333,8.16666667 C0.333333333,3.74838867 3.91505533,0.166666667 8.33333333,0.166666667 Z" id="path-11"></path>
    </defs>
    <g id="交易" stroke="none" stroke-width="1" fill="none" fill-rule="evenodd">
        <g id="icon_query_history_entrust">
            <rect id="Rectangle-Copy" x="0" y="0" width="100" height="100"></rect>
            <g id="Group-18" transform="translate(51.149147, 48.419079) rotate(12.000000) translate(-51.149147, -48.419079) translate(20.649147, 5.919079)">
                <mask id="mask-2" fill="white">
                    <use xlink:href="#path-1"></use>
                </mask>
                <use id="Rectangle" stroke="#FF787B" stroke-width="2" fill="#FFFFFF" xlink:href="#path-1"></use>
                <path d="M14.4110904,5.27585009 L16.1785323,5.27585009 L56.6436486,5.27585009 L58.4110904,5.27585009 C62.8293684,5.27585009 66.4110904,8.85757209 66.4110904,13.2758501 L66.4110904,81.2758501 C66.4110904,85.6941281 62.8293684,89.2758501 58.4110904,89.2758501 L14.4110904,89.2758501 C9.99281243,89.2758501 6.41109043,85.6941281 6.41109043,81.2758501 L6.41109043,13.2758501 C6.41109043,8.85757209 9.99281243,5.27585009 14.4110904,5.27585009 Z" id="Rectangle-Copy-25" fill="#FF787B" opacity="0.149999991" mask="url(#mask-2)"></path>
                <mask id="mask-4" fill="white">
                    <use xlink:href="#path-3"></use>
                </mask>
                <use id="Rectangle" stroke="#FF787B" stroke-width="2" xlink:href="#path-3"></use>
            </g>
            <g id="Group-18" transform="translate(46.186827, 49.781982) rotate(6.000000) translate(-46.186827, -49.781982) translate(15.686827, 7.281982)">
                <mask id="mask-6" fill="white">
                    <use xlink:href="#path-5"></use>
                </mask>
                <use id="Rectangle" stroke="#FF787B" stroke-width="2" fill="#FFFFFF" xlink:href="#path-5"></use>
                <path d="M16.0712713,5.86175026 L17.8387131,5.86175026 L58.3038294,5.86175026 L60.0712713,5.86175026 C64.4895493,5.86175026 68.0712713,9.44347226 68.0712713,13.8617503 L68.0712713,81.8617503 C68.0712713,86.2800283 64.4895493,89.8617503 60.0712713,89.8617503 L16.0712713,89.8617503 C11.6529933,89.8617503 8.07127128,86.2800283 8.07127128,81.8617503 L8.07127128,13.8617503 C8.07127128,9.44347226 11.6529933,5.86175026 16.0712713,5.86175026 Z" id="Rectangle-Copy-25" fill="#FF787B" opacity="0.149999991" mask="url(#mask-6)"></path>
                <mask id="mask-8" fill="white">
                    <use xlink:href="#path-7"></use>
                </mask>
                <use id="Rectangle" stroke="#FF787B" stroke-width="2" xlink:href="#path-7"></use>
            </g>
            <g id="Group-18" transform="translate(11.666667, 10.833333)">
                <mask id="mask-10" fill="white">
                    <use xlink:href="#path-9"></use>
                </mask>
                <use id="Rectangle" stroke="#FF787B" stroke-width="2" fill="#FFFFFF" xlink:href="#path-9"></use>
                <path d="M14.3333333,5.16666667 L16.1007752,5.16666667 L56.5658915,5.16666667 L58.3333333,5.16666667 C62.7516113,5.16666667 66.3333333,8.74838867 66.3333333,13.1666667 L66.3333333,81.1666667 C66.3333333,85.5849447 62.7516113,89.1666667 58.3333333,89.1666667 L14.3333333,89.1666667 C9.91505533,89.1666667 6.33333333,85.5849447 6.33333333,81.1666667 L6.33333333,13.1666667 C6.33333333,8.74838867 9.91505533,5.16666667 14.3333333,5.16666667 Z" id="Rectangle-Copy-25" fill="#FF787B" opacity="0.149999991" mask="url(#mask-10)"></path>
                <g id="Group-19" mask="url(#mask-10)" stroke="#FF787B" stroke-width="2">
                    <g transform="translate(8.333333, 11.000000)">
                        <path d="M8.6277363,9.53079566 L9.52680243,9 L10.4258686,10.592387 L12.1025028,11.5822476 L11.5436247,12.5721083 L17.1025028,22.4177524 L13.6529698,21.4725841 L12.7286702,25 L8.6277363,17.7366036 L4.52680243,25 L3.60250283,21.4725841 L0.152969763,22.4177524 L5.71184785,12.5721083 L5.15296976,11.5822476 L6.82960403,10.592387 L7.72867016,9 L8.6277363,9.53079566 Z" id="Combined-Shape" fill="#FFBBBD" stroke-linejoin="round"></path>
                        <circle id="Oval" fill="#FF9C9E" cx="8.5" cy="8.5" r="8.5"></circle>
                    </g>
                </g>
                <path d="M32.3333333,17.1666667 L45.3333333,17.1666667 C45.8856181,17.1666667 46.3333333,17.6143819 46.3333333,18.1666667 C46.3333333,18.7189514 45.8856181,19.1666667 45.3333333,19.1666667 L32.3333333,19.1666667 C31.7810486,19.1666667 31.3333333,18.7189514 31.3333333,18.1666667 C31.3333333,17.6143819 31.7810486,17.1666667 32.3333333,17.1666667 Z M32.3333333,27.1666667 L52.3333333,27.1666667 C52.8856181,27.1666667 53.3333333,27.6143819 53.3333333,28.1666667 C53.3333333,28.7189514 52.8856181,29.1666667 52.3333333,29.1666667 L32.3333333,29.1666667 C31.7810486,29.1666667 31.3333333,28.7189514 31.3333333,28.1666667 C31.3333333,27.6143819 31.7810486,27.1666667 32.3333333,27.1666667 Z" id="Combined-Shape" fill="#FF787B" mask="url(#mask-10)"></path>
                <mask id="mask-12" fill="white">
                    <use xlink:href="#path-11"></use>
                </mask>
                <use id="Rectangle" stroke="#FF787B" stroke-width="2" xlink:href="#path-11"></use>
            </g>
            <path d="M24.968255,62.1907281 L47.6572396,62.0106568 C48.5285211,62.0037419 49.3737172,61.7125252 50.0643376,61.1812788 L60.9216447,52.829504 C61.6208792,52.2916314 62.4783111,52 63.3604878,52 L85,52 C87.209139,52 89,53.790861 89,56 L89,94 C89,96.209139 87.209139,98 85,98 L25,98 C22.790861,98 21,96.209139 21,94 L21,66.1906022 C21,63.9938503 22.7715723,62.2081621 24.968255,62.1907281 Z" id="Rectangle" stroke="#FF787B" stroke-width="2" fill="#FFBBBD"></path>
        </g>
    </g>
</svg>