<?xml version="1.0" encoding="UTF-8"?>
<svg width="100px" height="100px" viewBox="0 0 100 100" version="1.1" xmlns="http://www.w3.org/2000/svg" xmlns:xlink="http://www.w3.org/1999/xlink">
    <!-- Generator: Sketch 54.1 (76490) - https://sketchapp.com -->
    <title>icon_deal_allsell</title>
    <desc>Created with Sketch.</desc>
    <g id="交易" stroke="none" stroke-width="1" fill="none" fill-rule="evenodd">
        <g id="icon_deal_allsell">
            <circle id="Oval-Copy-2" stroke="#3AAAFF" stroke-width="2" fill="#E2F2FF" cx="50" cy="50" r="49"></circle>
            <path d="M52,34 L52,48 L69,48 C69.5522847,48 70,48.4477153 70,49 L70,51 C70,51.5522847 69.5522847,52 69,52 L52,52 L52,66 C52,68.209139 50.209139,70 48,70 L48,52 L31,52 C30.4477153,52 30,51.5522847 30,51 L30,49 C30,48.4477153 30.4477153,48 31,48 L48,48 L48,34 L36,34 C35.4477153,34 35,33.5522847 35,33 L35,31 C35,30.4477153 35.4477153,30 36,30 L64,30 C64.5522847,30 65,30.4477153 65,31 L65,33 C65,33.5522847 64.5522847,34 64,34 L52,34 Z M39,37 L43,37 L43,41 C43,43.209139 41.209139,45 39,45 L39,37 Z M57,37 L61,37 L61,41 C61,43.209139 59.209139,45 57,45 L57,37 Z" id="Combined-Shape" fill="#3AAAFF"></path>
        </g>
    </g>
</svg>