<?xml version="1.0" encoding="UTF-8"?>
<svg width="60px" height="60px" viewBox="0 0 60 60" version="1.1" xmlns="http://www.w3.org/2000/svg" xmlns:xlink="http://www.w3.org/1999/xlink">
    <!-- Generator: Sketch 54.1 (76490) - https://sketchapp.com -->
    <title>中国工商银行</title>
    <desc>Created with Sketch.</desc>
    <g id="中国工商银行" stroke="none" stroke-width="1" fill="none" fill-rule="evenodd">
        <g transform="translate(5.000000, 5.000000)" fill="#C6000B" fill-rule="nonzero">
            <polygon id="Path" points="11.6616059 23.1449916 19.2583072 23.1449916 19.2583072 27.031676 11.6616059 27.031676 11.6616059 38.5150616 24.0283289 38.5150616 24.0283289 34.6283772 15.5482903 34.6283772 15.5482903 30.9183603 23.1449916 30.9183603 23.1449916 19.2583072 15.5482903 19.2583072 15.5482903 15.3716228 24.0283289 15.3716228 24.0283289 11.4849384 11.6616059 11.4849384"></polygon>
            <path d="M24.9116662,0.00155273973 C11.1316034,0.00155273973 0.00155273973,11.1316035 0.00155273973,24.9116662 C0.00155273973,38.691729 11.308271,49.8217797 24.9116662,49.9984473 C38.691729,49.9984473 49.9984473,38.691729 49.9984473,24.9116662 C49.9984473,11.1316034 38.8683965,0.00155273973 24.9116662,0.00155273973 Z M25.0883338,46.1117629 C13.4282806,46.1117629 3.88823712,36.5717194 3.88823712,24.9116662 C3.88823712,13.2516131 13.4282806,3.71156959 25.0883338,3.71156966 C36.7483869,3.71156973 46.2884304,13.2516132 46.2884303,24.9116662 C46.2884303,36.5717193 36.7483868,46.1117629 25.0883338,46.1117629 Z" id="Shape"></path>
            <polygon id="Path" points="25.9716711 15.3716228 34.6283772 15.3716228 34.6283772 19.2583072 27.031676 19.2583072 27.031676 30.9183603 34.6283772 30.9183603 34.6283772 34.8050447 25.9716711 34.8050447 25.9716711 38.5150616 38.5150616 38.5150616 38.5150616 26.8550084 30.9183603 26.8550084 30.9183603 22.968324 38.5150616 22.968324 38.5150616 11.4849384 25.9716711 11.4849384"></polygon>
        </g>
    </g>
</svg>