<?xml version="1.0" encoding="UTF-8"?>
<svg width="120px" height="120px" viewBox="0 0 120 120" version="1.1" xmlns="http://www.w3.org/2000/svg" xmlns:xlink="http://www.w3.org/1999/xlink">
    <!-- Generator: Sketch 54.1 (76490) - https://sketchapp.com -->
    <title>icon_img_upload</title>
    <desc>Created with Sketch.</desc>
    <g id="我的" stroke="none" stroke-width="1" fill="none" fill-rule="evenodd">
        <g id="icon_img_upload">
            <g id="Group-3">
                <rect id="Rectangle" fill="#F2F2F2" x="0" y="0" width="120" height="120" rx="8"></rect>
                <g id="Group" transform="translate(30.000000, 35.000000)" stroke="#B9B9B9">
                    <path d="M52.5,38 L52.5,42.5 L48,42.5 C47.7238576,42.5 47.5,42.7238576 47.5,43 C47.5,43.2761424 47.7238576,43.5 48,43.5 L52.5,43.5 L52.5,48 C52.5,48.2761424 52.7238576,48.5 53,48.5 C53.2761424,48.5 53.5,48.2761424 53.5,48 L53.5,43.5 L58,43.5 C58.2761424,43.5 58.5,43.2761424 58.5,43 C58.5,42.7238576 58.2761424,42.5 58,42.5 L53.5,42.5 L53.5,38 C53.5,37.7238576 53.2761424,37.5 53,37.5 C52.7238576,37.5 52.5,37.7238576 52.5,38 Z" id="Combined-Shape"></path>
                    <circle id="Oval" stroke-width="2" cx="14" cy="13" r="4"></circle>
                    <path d="M43,48 L4,48 C1.790861,48 0,46.209139 0,44 L0,4 C0,1.790861 1.790861,0 4,0 L54,0 C56.209139,0 58,1.790861 58,4 L58,33" id="Path" stroke-width="2" stroke-linecap="round"></path>
                    <polyline id="Path-5" stroke-width="2" stroke-linecap="round" stroke-linejoin="round" points="0 38 17.5 26.2051282 33 34.9230769 58 18"></polyline>
                </g>
            </g>
        </g>
    </g>
</svg>