<?xml version="1.0" encoding="UTF-8"?>
<svg width="40px" height="40px" viewBox="0 0 40 40" version="1.1" xmlns="http://www.w3.org/2000/svg" xmlns:xlink="http://www.w3.org/1999/xlink">
    <!-- Generator: Sketch 54.1 (76490) - https://sketchapp.com -->
    <title>icon_mine_logout</title>
    <desc>Created with Sketch.</desc>
    <g id="我的" stroke="none" stroke-width="1" fill="none" fill-rule="evenodd">
        <g id="icon_mine_logout">
            <rect id="Rectangle" x="0" y="0" width="40" height="40"></rect>
            <circle id="Oval" stroke="#FF787B" stroke-width="2" fill-opacity="0.15" fill="#FF787B" cx="20" cy="20" r="18"></circle>
            <path d="M21,19 L27,19 C27.5522847,19 28,19.4477153 28,20 C28,20.5522847 27.5522847,21 27,21 L21,21 L21,27 C21,27.5522847 20.5522847,28 20,28 C19.4477153,28 19,27.5522847 19,27 L19,21 L13,21 C12.4477153,21 12,20.5522847 12,20 C12,19.4477153 12.4477153,19 13,19 L19,19 L19,13 C19,12.4477153 19.4477153,12 20,12 C20.5522847,12 21,12.4477153 21,13 L21,19 Z" id="Combined-Shape" fill="#FF787B" transform="translate(20.000000, 20.000000) rotate(45.000000) translate(-20.000000, -20.000000) "></path>
        </g>
    </g>
</svg>