<?xml version="1.0" encoding="UTF-8"?>
<svg width="80px" height="80px" viewBox="0 0 80 80" version="1.1" xmlns="http://www.w3.org/2000/svg" xmlns:xlink="http://www.w3.org/1999/xlink">
    <!-- Generator: Sketch 55.2 (78181) - https://sketchapp.com -->
    <title>icon_topup_thirdparty</title>
    <desc>Created with Sketch.</desc>
    <g id="我的" stroke="none" stroke-width="1" fill="none" fill-rule="evenodd">
        <g id="pay" transform="translate(10.000000, 10.000000)" fill="#3AAAFF" fill-rule="nonzero">
            <path d="M12.000014,5.68434189e-13 L48.0000559,5.68434189e-13 C56.0000456,5.68434189e-13 60.0000698,4 60.0000698,12.000014 L60.0000698,48.0000559 C60.0000698,56.0000456 56.0000632,60.0000698 48.0000559,60.0000698 L12.000014,60.0000698 C4.00002419,60.0000698 -3.33955086e-13,56.0000632 -3.33955086e-13,48.0000559 L-3.33955086e-13,12.000014 C-3.33955086e-13,4.00002419 4,5.68434189e-13 12.000014,5.68434189e-13 Z M53.7951583,44 C55.0128608,44 56,43.0314074 56,41.8365833 L56,20.1634167 C56,18.9685926 55.0128608,18 53.7951582,18 L37.2488943,18 C29.9317388,18 24,23.8202921 24,30.9999714 C24,38.1796508 29.9317388,44 37.2488949,44 L53.7951588,44 Z" id="Combined-Shape"></path>
            <path d="M30,31 L30,31 C30,33.2091375 31.7908626,35 34,35 C36.2091376,35 38,33.2091375 38,31 C38,28.7908625 36.2091376,27 34,27 L34,27 C31.7908624,27 30,28.7908625 30,31 L30,31 Z" id="Path"></path>
        </g>
    </g>
</svg>