<?xml version="1.0" encoding="UTF-8"?>
<svg width="40px" height="40px" viewBox="0 0 40 40" version="1.1" xmlns="http://www.w3.org/2000/svg" xmlns:xlink="http://www.w3.org/1999/xlink">
    <!-- Generator: Sketch 54.1 (76490) - https://sketchapp.com -->
    <title>Group 4</title>
    <desc>Created with Sketch.</desc>
    <g id="我的" stroke="none" stroke-width="1" fill="none" fill-rule="evenodd">
        <g id="Group-4">
            <rect id="Rectangle" x="0" y="0" width="40" height="40"></rect>
            <path d="M4,22 C2.8954305,22 2,21.1045695 2,20 C2,18.8954305 2.8954305,18 4,18 C5.1045695,18 6,18.8954305 6,20 C6,21.1045695 5.1045695,22 4,22 Z M20,22 C18.8954305,22 18,21.1045695 18,20 C18,18.8954305 18.8954305,18 20,18 C21.1045695,18 22,18.8954305 22,20 C22,21.1045695 21.1045695,22 20,22 Z M36,22 C34.8954305,22 34,21.1045695 34,20 C34,18.8954305 34.8954305,18 36,18 C37.1045695,18 38,18.8954305 38,20 C38,21.1045695 37.1045695,22 36,22 Z" id="Combined-Shape" fill="#000000"></path>
        </g>
    </g>
</svg>