<?xml version="1.0" encoding="UTF-8"?>
<svg width="40px" height="40px" viewBox="0 0 40 40" version="1.1" xmlns="http://www.w3.org/2000/svg" xmlns:xlink="http://www.w3.org/1999/xlink">
    <!-- Generator: Sketch 54.1 (76490) - https://sketchapp.com -->
    <title>icon_message_withdrawal</title>
    <desc>Created with Sketch.</desc>
    <g id="我的" stroke="none" stroke-width="1" fill="none" fill-rule="evenodd">
        <g id="icon_message_withdrawal" transform="translate(2.000000, 2.000000)">
            <g id="Group-6">
                <circle id="Oval" fill="#FF787B" opacity="0.149999991" cx="18" cy="18" r="18"></circle>
                <path d="M15.5857864,14 L11.2928932,9.70710678 C10.9023689,9.31658249 10.9023689,8.68341751 11.2928932,8.29289322 C11.6834175,7.90236893 12.3165825,7.90236893 12.7071068,8.29289322 L18,13.5857864 L23.2928932,8.29289322 C23.6834175,7.90236893 24.3165825,7.90236893 24.7071068,8.29289322 C25.0976311,8.68341751 25.0976311,9.31658249 24.7071068,9.70710678 L20.4142136,14 L24,14 C24.5522847,14 25,14.4477153 25,15 C25,15.5522847 24.5522847,16 24,16 L19,16 L19,20 L24,20 C24.5522847,20 25,20.4477153 25,21 C25,21.5522847 24.5522847,22 24,22 L19,22 L19,27 C19,27.5522847 18.5522847,28 18,28 C17.4477153,28 17,27.5522847 17,27 L17,22 L12,22 C11.4477153,22 11,21.5522847 11,21 C11,20.4477153 11.4477153,20 12,20 L17,20 L17,16 L12,16 C11.4477153,16 11,15.5522847 11,15 C11,14.4477153 11.4477153,14 12,14 L15.5857864,14 Z" id="Combined-Shape" fill="#FF787B"></path>
                <path d="M36,18 C36,8.0588745 27.9411255,0 18,0 C8.0588745,0 0,8.0588745 0,18 C0,27.9411255 8.0588745,36 18,36 L18,36" id="Path" stroke="#FF787B" stroke-width="2" stroke-linecap="round"></path>
                <path d="M32.5857864,30 L30.2928932,27.7071068 C29.9023689,27.3165825 29.9023689,26.6834175 30.2928932,26.2928932 C30.6834175,25.9023689 31.3165825,25.9023689 31.7071068,26.2928932 L35.7071068,30.2928932 C36.0976311,30.6834175 36.0976311,31.3165825 35.7071068,31.7071068 L31.7071068,35.7071068 C31.3165825,36.0976311 30.6834175,36.0976311 30.2928932,35.7071068 C29.9023689,35.3165825 29.9023689,34.6834175 30.2928932,34.2928932 L32.5857864,32 L26,32 C25.4477153,32 25,31.5522847 25,31 C25,30.4477153 25.4477153,30 26,30 L32.5857864,30 Z" id="Combined-Shape" fill="#FF787B"></path>
            </g>
        </g>
    </g>
</svg>