<?xml version="1.0" encoding="UTF-8"?>
<svg width="40px" height="40px" viewBox="0 0 40 40" version="1.1" xmlns="http://www.w3.org/2000/svg" xmlns:xlink="http://www.w3.org/1999/xlink">
    <!-- Generator: Sketch 54.1 (76490) - https://sketchapp.com -->
    <title>icon_mine_setting</title>
    <desc>Created with Sketch.</desc>
    <g id="我的" stroke="none" stroke-width="1" fill="none" fill-rule="evenodd">
        <g id="icon_mine_setting">
            <rect id="Rectangle" x="0" y="0" width="40" height="40"></rect>
            <path d="M32.6773736,33.1506059 C30.500793,35.3101069 27.7754815,36.9173456 24.7290929,37.7446682 C24.0538318,35.7823353 22.1915776,34.3723341 20,34.3723341 C17.8084224,34.3723341 15.9461682,35.7823353 15.2709071,37.7446682 C12.2245185,36.9173456 9.49920704,35.3101069 7.32262639,33.1506059 C8.68188342,31.5846928 8.97063808,29.2689189 7.87564435,27.3723341 C6.77987151,25.4743999 4.62769431,24.5666398 2.59066,24.9629692 C2.20525541,23.4974349 2,21.9588545 2,20.3723341 C2,18.7858137 2.20525541,17.2472332 2.59066,15.781699 C4.62769431,16.1780283 6.77987151,15.2702683 7.87564435,13.3723341 C8.97063808,11.4757493 8.68188342,9.15997534 7.32262639,7.59406228 C9.49920704,5.43456123 12.2245185,3.82732256 15.2709071,3 C15.9461682,4.96233285 17.8084224,6.37233408 20,6.37233408 C22.1915776,6.37233408 24.0538318,4.96233285 24.7290929,3 C27.7754815,3.82732256 30.500793,5.43456123 32.6773736,7.59406228 C31.3181166,9.15997534 31.0293619,11.4757493 32.1243557,13.3723341 C33.2201285,15.2702683 35.3723057,16.1780283 37.40934,15.781699 C37.7947446,17.2472332 38,18.7858137 38,20.3723341 C38,21.9588545 37.7947446,23.4974349 37.40934,24.9629692 C35.3723057,24.5666398 33.2201285,25.4743999 32.1243557,27.3723341 C31.0293619,29.2689189 31.3181166,31.5846928 32.6773736,33.1506059 Z M20,26.3723341 C23.3137085,26.3723341 26,23.6860426 26,20.3723341 C26,17.0586256 23.3137085,14.3723341 20,14.3723341 C16.6862915,14.3723341 14,17.0586256 14,20.3723341 C14,23.6860426 16.6862915,26.3723341 20,26.3723341 Z" id="Combined-Shape" stroke="#FF787B" stroke-width="2" fill-opacity="0.15" fill="#FF787B" stroke-linejoin="round"></path>
        </g>
    </g>
</svg>