<?xml version="1.0" encoding="UTF-8"?>
<svg width="40px" height="40px" viewBox="0 0 40 40" version="1.1" xmlns="http://www.w3.org/2000/svg" xmlns:xlink="http://www.w3.org/1999/xlink">
    <!-- Generator: Sketch 54.1 (76490) - https://sketchapp.com -->
    <title>icon_message_contract</title>
    <desc>Created with Sketch.</desc>
    <g id="我的" stroke="none" stroke-width="1" fill="none" fill-rule="evenodd">
        <g id="icon_message_contract" transform="translate(6.000000, 1.000000)" fill="#FF787B">
            <g id="Group-4">
                <path d="M22.9090909,1.0004949 L25.4545455,1.0004949 C26.8603612,1.0004949 28,2.15172199 28,3.57183258 L28,34.4289732 C28,35.8490838 26.8603612,37.0003109 25.4545455,37.0003109 C24.9176536,37.0003109 24.3945093,36.8288227 23.959917,36.5103674 L15.4946285,30.3072755 C14.6031347,29.6540175 13.3968653,29.6540175 12.5053715,30.3072755 L4.040083,36.5103674 C2.90213186,37.3442215 1.31047223,37.0883219 0.485011725,35.9387996 C0.169762025,35.4997883 4.52163559e-15,34.9713244 0,34.4289732 L0,3.57183258 C0,2.15172199 1.13963882,1.0004949 2.54545455,1.0004949 L2.54545455,1.0004949 L5.09090909,1.0004949" id="Path" stroke="#FF787B" stroke-width="2" fill-opacity="0.15" stroke-linecap="round"></path>
                <path d="M6,9 L22,9 C22.5522847,9 23,9.44771525 23,10 L23,10 C23,10.5522847 22.5522847,11 22,11 L6,11 C5.44771525,11 5,10.5522847 5,10 L5,10 C5,9.44771525 5.44771525,9 6,9 Z" id="Rectangle"></path>
                <rect id="Rectangle-Copy" x="5" y="15" width="18" height="2" rx="1"></rect>
                <rect id="Rectangle-Copy-2" x="5" y="21" width="18" height="2" rx="1"></rect>
                <rect id="Rectangle" x="10" y="0" width="8" height="2" rx="1"></rect>
            </g>
        </g>
    </g>
</svg>