<?xml version="1.0" encoding="UTF-8"?>
<svg width="40px" height="40px" viewBox="0 0 40 40" version="1.1" xmlns="http://www.w3.org/2000/svg" xmlns:xlink="http://www.w3.org/1999/xlink">
    <!-- Generator: Sketch 54.1 (76490) - https://sketchapp.com -->
    <title>icon_mine_stopmoney</title>
    <desc>Created with Sketch.</desc>
    <g id="我的" stroke="none" stroke-width="1" fill="none" fill-rule="evenodd">
        <g id="icon_mine_stopmoney">
            <rect id="Rectangle" x="0" y="0" width="40" height="40"></rect>
            <g id="Group-11" transform="translate(2.000000, 1.000000)">
                <circle id="Oval" fill="#FF787B" opacity="0.149999991" cx="18" cy="19" r="18"></circle>
                <path d="M0,19.6278814 C0,25.7713161 3.07769637,31.1959163 7.77535539,34.4439483 M18,37.6278814 L18,37.6278814 C25.3872535,37.6278814 31.7351317,33.1777863 34.5091275,26.8121031 M32.1493513,8.5002982 C28.8534256,4.31512919 23.740533,1.62788142 18,1.62788142 C14.7289682,1.62788142 11.6617231,2.50039624 9.0183034,4.02538734" id="Shape" stroke="#FF787B" stroke-width="2" stroke-linecap="round"></path>
                <polyline id="Path" stroke="#FF787B" stroke-width="2" stroke-linecap="round" stroke-linejoin="round" transform="translate(11.372119, 3.000000) rotate(12.000000) translate(-11.372119, -3.000000) " points="13.3721186 5 9.37211858 5 9.37211858 1"></polyline>
                <polyline id="Path-Copy" stroke="#FF787B" stroke-width="2" stroke-linecap="round" stroke-linejoin="round" transform="translate(5.473798, 33.101680) rotate(-106.000000) translate(-5.473798, -33.101680) " points="7.4737981 35.1016795 3.4737981 35.1016795 3.4737981 31.1016795"></polyline>
                <polyline id="Path-Copy-2" stroke="#FF787B" stroke-width="2" stroke-linecap="round" stroke-linejoin="round" transform="translate(33.497353, 29.125234) rotate(-197.000000) translate(-33.497353, -29.125234) " points="35.4973529 31.1252343 31.4973529 31.1252343 31.4973529 27.1252343"></polyline>
                <path d="M20.4142136,17.6278814 L22,17.6278814 C22.5522847,17.6278814 23,18.0755967 23,18.6278814 C23,19.1801662 22.5522847,19.6278814 22,19.6278814 L19,19.6278814 L19,21.6278814 L22,21.6278814 C22.5522847,21.6278814 23,22.0755967 23,22.6278814 C23,23.1801662 22.5522847,23.6278814 22,23.6278814 L19,23.6278814 L19,26.6278814 C19,27.1801662 18.5522847,27.6278814 18,27.6278814 C17.4477153,27.6278814 17,27.1801662 17,26.6278814 L17,23.6278814 L14,23.6278814 C13.4477153,23.6278814 13,23.1801662 13,22.6278814 C13,22.0755967 13.4477153,21.6278814 14,21.6278814 L17,21.6278814 L17,19.6278814 L14,19.6278814 C13.4477153,19.6278814 13,19.1801662 13,18.6278814 C13,18.0755967 13.4477153,17.6278814 14,17.6278814 L15.5857864,17.6278814 L13.2928932,15.3349882 C12.9023689,14.9444639 12.9023689,14.3112989 13.2928932,13.9207746 C13.6834175,13.5302503 14.3165825,13.5302503 14.7071068,13.9207746 L18,17.2136679 L21.2928932,13.9207746 C21.6834175,13.5302503 22.3165825,13.5302503 22.7071068,13.9207746 C23.0976311,14.3112989 23.0976311,14.9444639 22.7071068,15.3349882 L20.4142136,17.6278814 Z" id="Combined-Shape" fill="#FF787B"></path>
            </g>
        </g>
    </g>
</svg>