<?xml version="1.0" encoding="UTF-8"?>
<svg width="80px" height="80px" viewBox="0 0 80 80" version="1.1" xmlns="http://www.w3.org/2000/svg" xmlns:xlink="http://www.w3.org/1999/xlink">
    <!-- Generator: Sketch 54.1 (76490) - https://sketchapp.com -->
    <title>icon_topup_unionpay</title>
    <desc>Created with Sketch.</desc>
    <g id="我的" stroke="none" stroke-width="1" fill="none" fill-rule="evenodd">
        <g id="icon_topup_unionpay">
            <rect id="Rectangle" x="0" y="0" width="80" height="80"></rect>
            <g id="银联" transform="translate(0.800000, 15.200000)" fill-rule="nonzero">
                <path d="M15.4905493,2.67599998e-15 L35.2324487,2.67599998e-15 C37.9949991,2.67599998e-15 39.7051494,2.25968109 39.0661921,5.02779043 L29.8764836,44.5816249 C29.22813,47.3497342 26.4655795,49.6 23.7124256,49.6 L3.96112975,49.6 C1.20797577,49.6 -0.511570918,47.3497342 0.136782751,44.5816249 L9.3358877,5.02779043 C9.97484493,2.25968109 12.7279989,0 15.4905493,2.67599998e-15 Z" id="Path" fill="#DE3232"></path>
                <path d="M33.1302519,2.67599998e-15 L55.8851049,2.67599998e-15 C58.6435542,2.67599998e-15 57.4008398,2.25968109 56.7512392,5.02779043 L47.534441,44.5816249 C46.8848403,47.3497342 47.0919594,49.6 44.3240956,49.6 L21.5692426,49.6 C18.8013788,49.6 17.0879393,47.3497342 17.73754,44.5816249 L26.9449237,5.02779043 C27.5945243,2.25968109 30.3623881,0 33.1302519,2.67599998e-15 Z" id="Path" fill="#004888"></path>
                <path d="M54.6976989,2.67599998e-15 L74.4361083,2.67599998e-15 C77.1981704,2.67599998e-15 78.9174131,2.25968109 78.2597793,5.02779043 L69.0716953,44.5816249 C68.4234562,47.3497342 65.6707889,49.6 62.8993321,49.6 L43.1609227,49.6 C40.3988606,49.6 38.6890127,47.3497342 39.3372517,44.5816249 L48.5253357,5.02779043 C49.1735748,2.25968109 51.9356368,0 54.6976989,2.67599998e-15 Z" id="Path" fill="#008089"></path>
                <path d="M51.7281109,36.9754873 L53.5834333,36.9754873 L54.1175412,35.1951274 L52.2622189,35.1951274 L51.7281109,36.9754873 Z M53.217991,32.056072 L52.5808096,34.1643928 C52.5808096,34.1643928 53.2835832,33.8083208 53.6677661,33.6865067 C54.0425787,33.6021739 54.6235382,33.5272114 54.6235382,33.5272114 L55.0733133,32.0467016 L53.217991,32.0467016 L53.217991,32.056072 L53.217991,32.056072 Z M54.1456522,29.02009 L53.5272114,31.044078 C53.5272114,31.044078 54.2206147,30.7348576 54.5954273,30.6317841 C54.9796102,30.5287106 55.5511994,30.4912294 55.5511994,30.4912294 L55.9916042,29.0107196 L54.1456522,29.0107196 L54.1456522,29.02009 L54.1456522,29.02009 Z M58.2498501,29.02009 L55.8510495,36.9661169 L56.4976012,36.9661169 L56.0009745,38.605922 L55.3544228,38.605922 L55.2044978,39.1212894 L52.9181409,39.1212894 L53.0774363,38.605922 L48.4297601,38.605922 L48.8982759,37.087931 L49.3667916,37.087931 L51.8030735,29.0294603 L52.2903298,27.3990255 L54.6235382,27.3990255 L54.37991,28.2236132 C54.37991,28.2236132 55.0077211,27.7738381 55.5886807,27.623913 C56.1696402,27.473988 59.5523238,27.4177661 59.5523238,27.4177661 L59.0463268,29.0388306 L58.2498501,29.0388306 L58.2498501,29.02009 L58.2498501,29.02009 Z" id="Shape" fill="#FFFFFF"></path>
                <path d="M59.2712144,27.3990255 L61.7543478,27.3990255 L61.7824588,28.3266867 C61.7730885,28.485982 61.9042729,28.5515742 62.1947526,28.5515742 L62.7007496,28.5515742 L62.2416042,30.0789355 L60.8922789,30.0789355 C59.7303598,30.1632684 59.289955,29.6666417 59.318066,29.1044228 L59.2712144,27.3990255 L59.2712144,27.3990255 Z M59.5991754,34.6516492 L57.2284858,34.6516492 L57.6314093,33.2929535 L60.3394303,33.2929535 L60.7329835,32.056072 L58.0530735,32.056072 L58.5122189,30.5193403 L65.9616192,30.5193403 L65.4931034,32.056072 L63.0005997,32.056072 L62.6070465,33.2929535 L65.1089205,33.2929535 L64.6966267,34.6516492 L61.9886057,34.6516492 L61.5013493,35.2326087 L62.5976762,35.2326087 L62.8694153,36.9473763 C62.8975262,37.116042 62.9068966,37.2284858 62.9537481,37.3034483 C63.00997,37.3690405 63.337931,37.3971514 63.5347076,37.3971514 L63.8626687,37.3971514 L63.3566717,39.0650675 L62.5133433,39.0650675 C62.3821589,39.0650675 62.1853823,39.0556972 61.9230135,39.0369565 C61.670015,39.0182159 61.491979,38.8682909 61.313943,38.783958 C61.164018,38.7089955 60.9297601,38.5215892 60.8735382,38.2029985 L60.6111694,36.4882309 L59.3836582,38.1748876 C58.9901049,38.7089955 58.455997,39.111919 57.5658171,39.111919 L55.8416792,39.111919 L56.2914543,37.622039 L56.9473763,37.622039 C57.1347826,37.622039 57.3034483,37.5470765 57.4252624,37.4814843 C57.5564468,37.4252624 57.6688906,37.3596702 57.7907046,37.1722639 L59.5991754,34.6516492 Z M33.6434033,30.9316342 L39.9215142,30.9316342 L39.4623688,32.4308846 L36.9511244,32.4308846 L36.5575712,33.7052474 L39.1250375,33.7052474 L38.6565217,35.2513493 L36.0890555,35.2513493 L35.4706147,37.3221889 C35.3956522,37.5470765 36.0796852,37.5845577 36.3233133,37.5845577 L37.6070465,37.4065217 L37.0916792,39.1212894 L34.1962519,39.1212894 C33.961994,39.1212894 33.7933283,39.0838081 33.5403298,39.0275862 C33.2967016,38.9713643 33.1936282,38.8589205 33.0811844,38.6902549 C32.9781109,38.5215892 32.8188156,38.3810345 32.9218891,38.0249625 L33.7558471,35.27009 L32.3315592,35.27009 L32.800075,33.6958771 L34.2337331,33.6958771 L34.6085457,32.4215142 L33.1842579,32.4215142 L33.6434033,30.9316342 L33.6434033,30.9316342 Z M37.860045,28.2423538 L40.4368816,28.2423538 L39.9683658,29.8071964 L36.4544978,29.8071964 L36.0703148,30.1351574 C35.9110195,30.2944528 35.8454273,30.2288606 35.6392804,30.3413043 C35.4425037,30.4443778 35.0208396,30.6411544 34.4773613,30.6411544 L33.3529235,30.6411544 L33.812069,29.1325337 L34.1494003,29.1325337 C34.4398801,29.1325337 34.6366567,29.1044228 34.7303598,29.0388306 C34.8428036,28.9732384 34.973988,28.813943 35.1145427,28.5515742 L35.7610945,27.3802849 L38.3285607,27.3802849 L37.860045,28.2423538 L37.860045,28.2423538 Z M42.8075712,30.8098201 C42.8075712,30.8098201 43.5103448,30.1726387 44.7097451,29.9664918 C44.9814843,29.9102699 46.6962519,29.9290105 46.6962519,29.9290105 L46.9586207,29.0669415 L43.3323088,29.0669415 L42.8075712,30.8098201 L42.8075712,30.8098201 Z M46.1996252,31.4657421 L42.6014243,31.4657421 L42.3765367,32.1872564 L45.4874813,32.1872564 C45.8529235,32.1404048 45.9372564,32.1966267 45.9653673,32.1778861 L46.1996252,31.4657421 L46.1996252,31.4657421 Z M41.5425787,27.3990255 L43.7352324,27.3990255 L43.4166417,28.5047226 C43.4166417,28.5047226 44.110045,27.9518741 44.587931,27.7550975 C45.0751874,27.5770615 46.1621439,27.4083958 46.1621439,27.4083958 L49.7134933,27.3896552 L48.5047226,31.4095202 C48.2985757,32.1029235 48.0643178,32.5433283 47.9143928,32.7494753 C47.7832084,32.9556222 47.623913,33.1336582 47.3146927,33.3023238 C47.0148426,33.4616192 46.7337331,33.5553223 46.4901049,33.5834333 C46.2558471,33.6021739 45.8997751,33.6115442 45.4031484,33.6115442 L41.9829835,33.6115442 L41.0178411,36.7974513 C40.9335082,37.116042 40.8866567,37.265967 40.9428786,37.3502999 C40.9897301,37.4252624 41.1115442,37.5095952 41.2708396,37.5095952 L42.7794603,37.3690405 L42.264093,39.1212894 L40.5774363,39.1212894 C40.0433283,39.1212894 39.6497751,39.111919 39.378036,39.0838081 C39.1156672,39.0650675 38.843928,39.0838081 38.6658921,38.9432534 C38.5065967,38.8026987 38.2629685,38.6246627 38.2723388,38.4372564 C38.2910795,38.2592204 38.366042,37.9781109 38.4691154,37.5845577 L41.5425787,27.3990255 Z" id="Shape" fill="#FFFFFF"></path>
                <path d="M47.9425037,33.902024 L47.7363568,34.8671664 C47.652024,35.1670165 47.5770615,35.391904 47.3428036,35.5886807 C47.0991754,35.7854573 46.818066,36.0103448 46.1621439,36.0103448 L44.944003,36.0571964 L44.9346327,37.1441529 C44.9158921,37.4627436 45.0002249,37.4252624 45.0470765,37.4721139 C45.1032984,37.5283358 45.1501499,37.5470765 45.2063718,37.5658171 L45.5905547,37.5470765 L46.7524738,37.4814843 L46.2745877,39.0744378 L44.9346327,39.0744378 C43.9976012,39.0744378 43.3041979,39.0556972 43.0793103,38.8776612 C42.8544228,38.7371064 42.8169415,38.5590705 42.8263118,38.2498501 L42.9106447,33.9863568 L45.0377061,33.9863568 L45.0095952,34.8577961 L45.5249625,34.8577961 C45.7029985,34.8577961 45.8154423,34.8390555 45.8904048,34.7922039 C45.9466267,34.7453523 46.0028486,34.6797601 46.0309595,34.5673163 L46.2371064,33.8926537 L47.9425037,33.8926537 L47.9425037,33.902024 L47.9425037,33.902024 Z M17.5452024,12.5283358 C17.4702399,12.8750375 16.1021739,19.1812594 16.0928036,19.1812594 C15.8023238,20.4556222 15.5868066,21.373913 14.8652924,21.9548726 C14.4436282,22.2922039 13.9657421,22.4608696 13.4128936,22.4608696 C12.5227136,22.4608696 11.9886057,22.0110945 11.9042729,21.1583958 L11.8855322,20.867916 L12.1572714,19.1531484 C12.1572714,19.1531484 13.5909295,13.3997751 13.843928,12.6501499 C13.8532984,12.6032984 13.8626687,12.5845577 13.8626687,12.5658171 C11.0703148,12.593928 10.5736882,12.5658171 10.5362069,12.5189655 C10.5174663,12.5751874 10.4425037,12.9312594 10.4425037,12.9312594 L8.98073463,19.4061469 L8.84955022,19.9589955 L8.61529235,21.758096 C8.61529235,22.2828336 8.71836582,22.7232384 8.92451274,23.0886807 C9.59917541,24.25997 11.491979,24.4286357 12.5695652,24.4286357 C13.9563718,24.4286357 15.2588456,24.1381559 16.1302849,23.5946777 C17.6576462,22.6951274 18.0605697,21.2802099 18.4166417,20.0245877 L18.5853073,19.3874063 C18.5853073,19.3874063 20.0658171,13.4185157 20.3188156,12.6407796 C20.3281859,12.593928 20.3281859,12.5751874 20.3375562,12.5564468 C18.3323088,12.593928 17.741979,12.5658171 17.5452024,12.5283358 Z M25.7161169,24.3724138 C24.7228636,24.3630435 24.3761619,24.3630435 23.2236132,24.4192654 L23.1767616,24.3349325 C23.2798351,23.8945277 23.3922789,23.4634933 23.485982,23.0137181 L23.6265367,22.414018 C23.842054,21.4769865 24.0482009,20.39003 24.0763118,20.0526987 C24.0950525,19.855922 24.170015,19.3592954 23.5890555,19.3592954 C23.3454273,19.3592954 23.1017991,19.4717391 22.8488006,19.5841829 C22.7082459,20.0901799 22.4271364,21.4863568 22.295952,22.1235382 C22.0054723,23.4728636 21.9867316,23.6227886 21.8649175,24.288081 L21.7805847,24.3724138 C20.7592204,24.3630435 20.4125187,24.3630435 19.2318591,24.4192654 L19.1756372,24.3255622 C19.3724138,23.5290855 19.5691904,22.7138681 19.7565967,21.9267616 C20.2532234,19.7528486 20.3656672,18.9282609 20.5062219,17.8225637 L20.599925,17.7569715 C21.7431034,17.5976762 22.0242129,17.5695652 23.2610945,17.3071964 L23.3641679,17.4290105 L23.1767616,18.1224138 C23.3829085,18.0005997 23.5890555,17.8694153 23.8045727,17.7569715 C24.3855322,17.4758621 25.0414543,17.3821589 25.3975262,17.3821589 C25.9410045,17.3821589 26.5313343,17.532084 26.7843328,18.1598951 C27.0185907,18.7221139 26.8592954,19.4061469 26.550075,20.7648426 L26.3907796,21.4582459 C26.0721889,22.9668666 26.0253373,23.247976 25.837931,24.2787106 L25.7161169,24.3724138 L25.7161169,24.3724138 Z M29.7453523,24.3724138 C29.1456522,24.3724138 28.7614693,24.3630435 28.3866567,24.3724138 C28.0118441,24.3724138 27.6464018,24.3911544 27.0935532,24.4192654 L27.056072,24.3724138 L27.027961,24.3255622 C27.1778861,23.753973 27.2622189,23.5571964 27.3371814,23.3510495 C27.4121439,23.1449025 27.4871064,22.9387556 27.6182909,22.3577961 C27.7869565,21.5988006 27.8994003,21.074063 27.9743628,20.6055472 C28.0493253,20.1557721 28.0961769,19.7715892 28.1523988,19.3311844 L28.1992504,19.2937031 L28.2461019,19.2468516 C28.8364318,19.1625187 29.2206147,19.1062969 29.6047976,19.050075 C29.9983508,18.9938531 30.3825337,18.9188906 31.0009745,18.7970765 L31.0197151,18.8532984 L31.0384558,18.9001499 C30.926012,19.3686657 30.8135682,19.8371814 30.7011244,20.3150675 C30.5886807,20.7835832 30.4762369,21.2614693 30.3731634,21.729985 C30.1482759,22.7232384 30.063943,23.098051 30.0077211,23.3697901 C29.9514993,23.6227886 29.9421289,23.7633433 29.8577961,24.2787106 L29.8015742,24.3255622 L29.7453523,24.3724138 L29.7453523,24.3724138 Z M36.0422039,20.8585457 C35.9953523,21.1115442 35.7704648,22.0673163 35.4612444,22.4702399 C35.2550975,22.77009 35.002099,22.9481259 34.7209895,22.9481259 C34.646027,22.9481259 34.1587706,22.9481259 34.14003,22.2172414 C34.1306597,21.8611694 34.2056222,21.4863568 34.2993253,21.0928036 C34.5616942,19.9402549 34.8709145,18.9751124 35.6486507,18.9751124 C36.2764618,18.9751124 36.313943,19.6966267 36.0422039,20.8585457 Z M38.6377811,20.9616192 C38.9844828,19.4342579 38.7221139,18.7314843 38.3754123,18.2910795 C37.8506747,17.6351574 36.9511244,17.4196402 36.0047226,17.4196402 C35.4331334,17.4196402 34.0838081,17.4758621 33.0249625,18.4597451 C32.265967,19.1625187 31.9192654,20.1182909 31.7037481,21.0272114 C31.4882309,21.9548726 31.2446027,23.6415292 32.7907046,24.25997 C33.2685907,24.4661169 33.9526237,24.5223388 34.3930285,24.5223388 C35.5268366,24.5223388 36.6887556,24.2131184 37.5508246,23.2854573 C38.2254873,22.5358321 38.5347076,21.4207646 38.6377811,20.9616192 Z M62.860045,24.4754873 C61.6606447,24.4661169 61.3233133,24.4661169 60.2176162,24.5129685 L60.1426537,24.4286357 C60.4425037,23.2854573 60.7517241,22.1516492 61.014093,21.0084708 C61.3607946,19.5185907 61.4357571,18.8814093 61.5575712,18.00997 L61.641904,17.9350075 C62.831934,17.7663418 63.1505247,17.7194903 64.3874063,17.4852324 L64.4342579,17.5883058 C64.2093703,18.515967 63.9751124,19.4623688 63.7689655,20.3994003 C63.3191904,22.3671664 63.1411544,23.3604198 62.9724888,24.3911544 L62.860045,24.4754873 L62.860045,24.4754873 Z" id="Shape" fill="#FFFFFF"></path>
                <path d="M61.0609445,20.9897301 C60.9953523,21.2333583 60.7798351,22.1985007 60.4706147,22.6014243 C60.2644678,22.891904 59.7865817,23.06994 59.5054723,23.06994 C59.4305097,23.06994 58.9432534,23.06994 58.9245127,22.3577961 C58.9151424,22.0017241 58.9901049,21.6362819 59.0838081,21.2333583 C59.3461769,20.1089205 59.6553973,19.1437781 60.4425037,19.1437781 C61.0609445,19.1250375 61.3233133,19.8278111 61.0609445,20.9897301 L61.0609445,20.9897301 Z M63.4222639,21.1021739 C63.7689655,19.5841829 62.3727886,20.9616192 62.147901,20.4649925 C61.8105697,19.6872564 62.0167166,18.1036732 60.6392804,17.5695652 C60.1145427,17.3727886 58.8682909,17.6351574 57.8094453,18.6096702 C57.0598201,19.3030735 56.6943778,20.2494753 56.4882309,21.1583958 C56.2727136,22.0766867 56.0290855,23.753973 57.5658171,24.3630435 C58.0530735,24.5691904 58.4934783,24.6254123 58.9432534,24.616042 C60.4893553,24.5317091 61.6606447,22.1985007 62.532084,21.2802099 C63.2067466,20.539955 63.3191904,21.5425787 63.4222639,21.1021739 L63.4222639,21.1021739 Z M45.4031484,24.3724138 C44.4098951,24.3630435 44.0725637,24.3630435 42.9106447,24.4192654 L42.8731634,24.3349325 C42.9668666,23.8945277 43.0793103,23.4634933 43.1823838,23.0137181 L43.3229385,22.414018 C43.5384558,21.4769865 43.7446027,20.39003 43.7727136,20.0526987 C43.7914543,19.855922 43.8570465,19.3592954 43.2948276,19.3592954 C43.0511994,19.3592954 42.7982009,19.4717391 42.5452024,19.5841829 C42.4046477,20.0901799 42.1235382,21.4863568 41.9829835,22.1235382 C41.7018741,23.4728636 41.6831334,23.6227886 41.5613193,24.288081 L41.4769865,24.3724138 C40.4556222,24.3630435 40.0995502,24.3630435 38.9376312,24.4192654 L38.8814093,24.3255622 C39.0781859,23.5290855 39.2655922,22.7138681 39.4623688,21.9267616 C39.9496252,19.7528486 40.062069,18.9282609 40.2026237,17.8225637 L40.2963268,17.7569715 C41.4395052,17.5976762 41.7206147,17.5695652 42.9574963,17.3071964 L43.0605697,17.4290105 L42.8825337,18.1224138 C43.0886807,18.0005997 43.2948276,17.8694153 43.5009745,17.7569715 C44.081934,17.4758621 44.7378561,17.3821589 45.093928,17.3821589 C45.628036,17.3821589 46.2277361,17.532084 46.4807346,18.1598951 C46.7149925,18.7221139 46.5556972,19.4061469 46.2464768,20.7648426 L46.0871814,21.4582459 C45.7685907,22.9668666 45.7123688,23.247976 45.5437031,24.2787106 L45.4031484,24.3724138 L45.4031484,24.3724138 Z M53.9863568,12.5189655 L53.1617691,12.5283358 C51.015967,12.5564468 50.1632684,12.5377061 49.8071964,12.5002249 C49.7790855,12.6595202 49.7134933,12.9312594 49.7134933,12.9312594 L48.9544978,16.491979 C48.9544978,16.491979 47.117916,24.0538231 47.0335832,24.4098951 C48.8982759,24.3911544 49.6666417,24.3911544 49.9852324,24.4192654 C50.0601949,24.0631934 50.4912294,21.9548726 50.5005997,21.9548726 C50.5005997,21.9548726 50.866042,20.4087706 50.8941529,20.3525487 C50.8941529,20.3525487 51.0065967,20.1932534 51.1284108,20.1276612 L51.2970765,20.1276612 C52.9087706,20.1276612 54.735982,20.1276612 56.1602699,19.0781859 C57.1254123,18.3566717 57.7907046,17.2978261 58.0905547,16.0047226 C58.1655172,15.6861319 58.2217391,15.301949 58.2217391,14.9271364 C58.2217391,14.4305097 58.128036,13.9432534 57.8375562,13.5590705 C57.1066717,12.5377061 55.6636432,12.5283358 53.9863568,12.5189655 Z M55.063943,16.2202399 C54.885907,17.0073463 54.37991,17.6726387 53.723988,17.9912294 C53.1711394,18.2629685 52.5152174,18.2817091 51.8311844,18.2817091 L51.3814093,18.2817091 L51.4188906,18.1036732 C51.4188906,18.1036732 52.2341079,14.5523238 52.2341079,14.5616942 L52.2528486,14.3836582 L52.2715892,14.2431034 L52.5995502,14.2805847 C52.5995502,14.2805847 54.2768366,14.4305097 54.3236882,14.4305097 C54.9796102,14.6835082 55.2513493,15.3488006 55.063943,16.2202399 L55.063943,16.2202399 Z M72.6426537,17.4758621 L72.5489505,17.3727886 C71.3214393,17.6164168 71.105922,17.6538981 69.9814843,17.8038231 L69.8971514,17.8881559 C69.8877811,17.8975262 69.8877811,17.9162669 69.8877811,17.9350075 L69.8784108,17.9162669 C69.0444528,19.855922 69.0631934,19.4342579 68.3885307,20.9522489 C68.3791604,20.8866567 68.3791604,20.8398051 68.3791604,20.7648426 L68.2104948,17.4664918 L68.098051,17.3634183 C66.8236882,17.6070465 66.7862069,17.6445277 65.6055472,17.7944528 L65.5118441,17.8787856 C65.5024738,17.9256372 65.5024738,17.9631184 65.4931034,18.00997 L65.5024738,18.0287106 C65.6430285,18.7877061 65.6149175,18.6190405 65.7648426,19.8090705 C65.8304348,20.39003 65.9241379,20.9803598 65.9897301,21.5613193 C66.1021739,22.5264618 66.1771364,23.0043478 66.3176912,24.4754873 C65.5212144,25.7967016 65.3244378,26.2933283 64.5654423,27.4458771 L64.6122939,27.5583208 C65.7648426,27.5114693 66.0365817,27.5114693 66.8892804,27.5114693 L67.0766867,27.295952 C67.7232384,25.9278861 72.6426537,17.4758621 72.6426537,17.4758621 L72.6426537,17.4758621 Z M30.8323088,18.3004498 C31.4882309,17.8506747 31.5725637,17.2134933 31.0103448,16.8949025 C30.4574963,16.5669415 29.4829835,16.670015 28.8176912,17.1197901 C28.1523988,17.5695652 28.0774363,18.2067466 28.6302849,18.5347076 C29.1831334,18.8532984 30.1670165,18.7595952 30.8323088,18.3004498 Z" id="Shape" fill="#FFFFFF"></path>
                <path d="M66.9829835,27.4365067 L66.0178411,29.0856822 C65.7086207,29.647901 65.1464018,30.0695652 64.2468516,30.0695652 L62.7194903,30.0414543 L63.1692654,28.5609445 L63.4691154,28.5609445 C63.6284108,28.5609445 63.7408546,28.5422039 63.8251874,28.5047226 C63.9001499,28.4766117 63.9563718,28.4203898 64.021964,28.336057 L64.5841829,27.4365067 L66.9829835,27.4365067 L66.9829835,27.4365067 Z" id="Path" fill="#FFFFFF"></path>
            </g>
        </g>
    </g>
</svg>