<?xml version="1.0" encoding="UTF-8"?>
<svg width="30px" height="30px" viewBox="0 0 30 30" version="1.1" xmlns="http://www.w3.org/2000/svg" xmlns:xlink="http://www.w3.org/1999/xlink">
    <!-- Generator: Sketch 54.1 (76490) - https://sketchapp.com -->
    <title>icon_card_add</title>
    <desc>Created with Sketch.</desc>
    <g id="我的" stroke="none" stroke-width="1" fill="none" fill-rule="evenodd">
        <path d="M14,14 L14,1 C14,0.44771525 14.4477153,1.01453063e-16 15,1.23259516e-32 C15.5522847,-1.01453063e-16 16,0.44771525 16,1 L16,14 L29,14 C29.5522847,14 30,14.4477153 30,15 C30,15.5522847 29.5522847,16 29,16 L16,16 L16,29 C16,29.5522847 15.5522847,30 15,30 C14.4477153,30 14,29.5522847 14,29 L14,16 L1,16 C0.44771525,16 6.76353751e-17,15.5522847 0,15 C-6.76353751e-17,14.4477153 0.44771525,14 1,14 L14,14 Z" id="icon_card_add" fill="#999999"></path>
    </g>
</svg>