<?xml version="1.0" encoding="UTF-8"?>
<svg width="60px" height="60px" viewBox="0 0 60 60" version="1.1" xmlns="http://www.w3.org/2000/svg" xmlns:xlink="http://www.w3.org/1999/xlink">
    <!-- Generator: Sketch 54.1 (76490) - https://sketchapp.com -->
    <title>中国建设银行</title>
    <desc>Created with Sketch.</desc>
    <g id="中国建设银行" stroke="none" stroke-width="1" fill="none" fill-rule="evenodd">
        <g transform="translate(5.000000, 5.000000)" fill="#003B90" fill-rule="nonzero" id="Shape">
            <path d="M23.4308473,1.80432015 C23.4308473,1.80432015 27.8294576,-1.53264301 35.5710118,0.926171916 C35.5710118,0.926171916 38.0342336,1.80432008 41.0252885,4.43876471 L49.9984536,14.0983949 L45.0720101,19.0160247 L31.1724015,4.79002397 C31.1724015,4.43876471 28.8851241,1.80432015 23.4308473,1.80432015 Z M43.4885104,20.2454322 L37.6823447,25.689951 C37.6823447,25.689951 36.8026227,27.0949882 36.098845,25.689951 L25.3662359,15.3278023 C25.3662359,15.3278023 24.4865138,13.9227652 23.7827362,14.976543 L13.0501269,25.8655807 C13.0501269,25.8655807 12.1704049,26.9193585 13.4020158,27.4462474 L23.7827362,37.8083961 C23.7827362,37.8083961 24.6624582,39.2134332 25.3662359,38.1596554 L36.098845,27.2706177 C36.098845,27.2706177 36.4507338,26.3924696 38.0342336,26.3924696 L48.9427871,26.3924696 C48.9427871,26.3924696 49.4706203,37.6327665 41.0252885,44.4823224 C41.0252885,44.4823224 30.116735,55.3713599 14.6336267,48.8730633 C14.6336267,48.8730633 -0.145703956,43.6041741 0.0302404502,24.8118028 C0.0302404502,24.8118028 0.382129263,12.1664688 12.1704049,5.31691287 C12.1704049,5.31691287 20.6157367,-1.00575411 27.3016244,3.73624618 L43.4885104,20.2454322 Z"></path>
        </g>
    </g>
</svg>