<?xml version="1.0" encoding="UTF-8"?>
<svg width="60px" height="60px" viewBox="0 0 60 60" version="1.1" xmlns="http://www.w3.org/2000/svg" xmlns:xlink="http://www.w3.org/1999/xlink">
    <!-- Generator: Sketch 54.1 (76490) - https://sketchapp.com -->
    <title>中国邮政储蓄银行</title>
    <desc>Created with Sketch.</desc>
    <g id="中国邮政储蓄银行" stroke="none" stroke-width="1" fill="none" fill-rule="evenodd">
        <g transform="translate(5.000000, 6.000000)" fill="#108C3E" fill-rule="nonzero" id="Shape">
            <path d="M32.4132403,47.9974403 L35.5123675,34.1573033 L42.9328622,34.1573033 L43.9929329,29.1235955 L33.9222615,29.1235955 L30.7420494,43.3258427 L11.8374558,43.3258427 L12.5441696,40.8089888 L28.9752651,40.8089888 L32.155477,26.6067416 L44.6996466,26.6067416 L45.7597173,21.9325842 L30.3886926,21.9325842 L27.2084806,36.1348314 L13.6042403,36.1348314 L14.3109541,33.9775281 L24.7349823,33.9775281 L27.2084806,21.9325842 L16.4310954,21.9325842 L17.1378092,19.4157303 L33.5689046,19.4157303 L35.3356891,11.8651685 L47.5265018,11.8651685 L48.5865724,7.1910112 L33.2155477,7.1910112 L31.0954064,14.3820225 L17.844523,14.3820225 L18.5512367,11.5056179 L29.3286219,11.5056179 L31.4487633,4.67415729 L48.9399294,4.67415729 L50,2.26207941e-15 L29.3286219,2.26207941e-15 L27.5618375,7.1910112 L16.7844523,7.1910112 L13.6042403,21.752809 L2.47349822,21.752809 L-1.98313588e-14,33.7977528 L11.1307421,33.7977528 L8.30388692,48 L32.3321555,48 L32.4132403,47.9974403 Z M4,29 L4.71999998,27 L13,27 L12.28,29 L4,29 Z M15,29 L15.72,27 L24,27 L23.64,29 L15,29 L15,29 Z"></path>
        </g>
    </g>
</svg>