<?xml version="1.0" encoding="UTF-8"?>
<svg width="30px" height="30px" viewBox="0 0 30 30" version="1.1" xmlns="http://www.w3.org/2000/svg" xmlns:xlink="http://www.w3.org/1999/xlink">
    <!-- Generator: Sketch 54.1 (76490) - https://sketchapp.com -->
    <title>icon_button_plus</title>
    <desc>Created with Sketch.</desc>
    <g id="行情" stroke="none" stroke-width="1" fill="none" fill-rule="evenodd">
        <path d="M13,13 L13,4 C13,2.8954305 13.8954305,2 15,2 C16.1045695,2 17,2.8954305 17,4 L17,13 L26,13 C27.1045695,13 28,13.8954305 28,15 C28,16.1045695 27.1045695,17 26,17 L17,17 L17,26 C17,27.1045695 16.1045695,28 15,28 C13.8954305,28 13,27.1045695 13,26 L13,17 L4,17 C2.8954305,17 2,16.1045695 2,15 C2,13.8954305 2.8954305,13 4,13 L13,13 Z" id="icon_button_plus" fill="#000000"></path>
    </g>
</svg>