<?xml version="1.0" encoding="UTF-8"?>
<svg width="100px" height="26px" viewBox="0 0 100 26" version="1.1" xmlns="http://www.w3.org/2000/svg" xmlns:xlink="http://www.w3.org/1999/xlink">
    <!-- Generator: Sketch 55.1 (78136) - https://sketchapp.com -->
    <title>icon_system_notice</title>
    <desc>Created with Sketch.</desc>
    <g id="主页-黑色" stroke="none" stroke-width="1" fill="none" fill-rule="evenodd">
        <path d="M16.1603268,10.7600644 L20.0663773,10.7600644 L22.083227,16.9565217 L13.2499362,16.9565217 L13.2499362,25.958132 L7.76104161,25.958132 L7.76104161,22.3574879 L8.57799336,23.0273752 L9.98212918,23.0273752 L9.98212918,17.1239936 L9.88001021,16.9565217 L1.04671943,16.9565217 L1.04671943,13.3558776 L2.09343886,14.0676329 L5.82078121,14.0676329 L8.06739852,11.8486312 L0.612713812,11.8486312 L7.50574419,5.02415459 L0,5.52657005 L0,2.34460548 L22.0066377,1.17230274 L22.7214705,0 L22.7214705,4.01932367 L12.5606331,4.68921095 L8.01633903,9.00161031 L10.9522594,9.00161031 L12.4585142,7.53623188 L11.9989788,6.69887279 L18.0495277,6.69887279 L10.2884861,14.0676329 L17.6410518,14.0676329 L16.7985703,11.5555556 L16.1603268,10.7600644 Z M14.7817207,18.8405797 L19.1473066,18.8405797 L18.5601225,19.3429952 L20.0408476,23.1111111 L21.7513403,23.1111111 L22.5427623,22.3993559 L22.5427623,26 L17.5134031,26 L14.7817207,18.8405797 Z M0.280827164,26 L0.280827164,22.3993559 L1.04671943,23.1111111 L3.01250957,23.1111111 L4.49323462,19.5942029 L3.90605055,19.0917874 L8.27163646,19.0917874 L5.43783508,26 L0.280827164,26 Z M47.4342609,9.16908213 L48.5575696,14.9049919 L46.1577738,14.9049919 L46.1577738,22.1481481 L48.8639265,22.1481481 L48.8639265,25.8325282 C48.7788269,25.4696708 48.6426696,25.2393993 48.4554506,25.1417069 C48.2682316,25.0440145 48.1065448,24.9951691 47.9703855,24.9951691 L42.8644371,24.9951691 L42.8644371,14.9049919 L40.0816952,14.9049919 L38.3712025,24.9951691 L35.1289252,24.9951691 L36.8394179,14.9049919 L34.6693898,14.9049919 L37.6053102,5.61030596 L34.4140924,5.61030596 L34.4140924,2.05152979 L35.2055144,2.76328502 L40.0306357,2.76328502 L39.698749,1.04669887 L39.2392137,0.209339775 L42.7878478,0.209339775 L43.2729129,2.76328502 L48.8639265,2.76328502 L48.8639265,6.44766506 C48.7788269,6.11271974 48.6426696,5.88942622 48.4554506,5.77777778 C48.2682316,5.66612934 48.1065448,5.61030596 47.9703855,5.61030596 L41.0262956,5.61030596 L39.009446,12.0161031 L44.5494001,12.0161031 L44.1664539,10.0064412 L43.7069186,9.16908213 L47.4342609,9.16908213 Z M29.1549655,9.54589372 L24.9425581,9.54589372 L29.410263,1.04669887 L28.9507276,0.209339775 L33.5460812,0.209339775 L29.6400306,6.65700483 L34.0056165,6.65700483 L29.6655604,15.4911433 L33.4439622,15.4911433 L33.4439622,19.3011272 C33.3588626,19.0778303 33.2567447,18.8615147 33.1376053,18.6521739 C33.0184659,18.4428331 32.8227399,18.3381643 32.5504212,18.3381643 L24.9425581,18.3381643 L29.1549655,9.54589372 Z M33.4439622,25.8325282 C33.3588626,25.525495 33.2269603,25.3161573 33.0482512,25.2045089 C32.8695421,25.0928604 32.7036005,25.037037 32.5504212,25.037037 L24.9170283,25.037037 L24.9170283,21.4782609 L25.7339801,22.1900161 L33.4439622,22.1900161 L33.4439622,25.8325282 Z M72.5555272,25.3719807 L52.9231555,25.3719807 L52.9231555,22.5249597 L59.0758233,10.5925926 L58.616288,9.79710145 L63.3903498,9.79710145 L57.1100332,22.5249597 L68.1644115,22.5249597 L66.5815675,16.8309179 L65.943324,15.9935588 L70.002553,15.9935588 L72.5555272,25.3719807 Z M54.7102374,11.8067633 L50.5488895,11.8067633 L55.8335461,1.59098229 L55.2718918,0.669887279 L60.4033699,0.669887279 L54.7102374,11.8067633 Z M64.5391882,0.669887279 L69.4664284,0.669887279 L68.8792443,1.59098229 L74.2915497,11.8067633 L70.1046719,11.8067633 L64.5391882,0.669887279 Z M99.9489405,14.1095008 L99.9489405,25.3719807 L76.436048,25.3719807 L76.436048,15.1561997 L76.0531019,14.1095008 L99.9489405,14.1095008 Z M99.8212918,6.90821256 C99.7361922,6.54535514 99.6042899,6.30810576 99.4255808,6.19645733 C99.2468717,6.08480889 99.08093,6.02898551 98.9277508,6.02898551 L90.7071739,6.02898551 L90.7071739,9.62962963 L100,9.62962963 L100,13.3140097 C99.9319203,13.0069765 99.8042729,12.7976388 99.6170539,12.6859903 C99.4298348,12.5743419 99.2596382,12.5185185 99.106459,12.5185185 L76.0531019,12.5185185 L76.0531019,8.9178744 L76.8445239,9.62962963 L87.4393669,9.62962963 L87.4393669,6.02898551 L80.0357416,6.02898551 L79.3719683,8.33172303 L75.8743937,8.33172303 L77.8657136,1.80032206 L77.4317079,0.669887279 L81.6441154,0.669887279 L80.9037529,3.14009662 L87.4393669,3.14009662 L87.4393669,1.6747182 L86.9798315,0.879227053 L90.7071739,0.879227053 L90.7071739,3.14009662 L99.8212918,3.14009662 L99.8212918,6.90821256 Z M96.6811335,22.5668277 L96.6811335,17.0821256 L79.703855,17.0821256 L79.703855,22.5668277 L96.6811335,22.5668277 Z" id="icon_system_notice" fill="#FFFFFF" fill-rule="nonzero"></path>
    </g>
</svg>