<?xml version="1.0" encoding="UTF-8"?>
<svg width="100px" height="100px" viewBox="0 0 100 100" version="1.1" xmlns="http://www.w3.org/2000/svg" xmlns:xlink="http://www.w3.org/1999/xlink">
    <!-- Generator: Sketch 54.1 (76490) - https://sketchapp.com -->
    <title>icon_qurey_moneyrecord</title>
    <desc>Created with Sketch.</desc>
    <g id="主页-黑色" stroke="none" stroke-width="1" fill="none" fill-rule="evenodd">
        <g id="icon_qurey_moneyrecord">
            <rect id="Rectangle" x="0" y="0" width="100" height="100"></rect>
            <path d="M85,86 C85,90.418278 81.418278,94 77,94 L31,94 L31,20 C31,15.581722 34.581722,12 39,12 L93,12 C88.581722,12 85,15.581722 85,20 L85,86 Z" id="Combined-Shape" fill="#FF787B" opacity="0.200000003"></path>
            <path d="M61.0139958,80.4771745 L60,80 L23,80 L23,14 C23,9.581722 26.581722,6 31,6 L85,6 C80.581722,6 77,9.581722 77,14 L77,80 C77,84.418278 73.418278,88 69,88 C64.7419236,88 61.260838,84.6733072 61.0139958,80.4771745 Z" id="Combined-Shape" stroke="#FF787B" stroke-width="2" stroke-linejoin="round"></path>
            <path d="M40.4142136,22 L42,22 C42.5522847,22 43,22.4477153 43,23 C43,23.5522847 42.5522847,24 42,24 L39,24 L39,26 L42,26 C42.5522847,26 43,26.4477153 43,27 C43,27.5522847 42.5522847,28 42,28 L39,28 L39,31 C39,31.5522847 38.5522847,32 38,32 C37.4477153,32 37,31.5522847 37,31 L37,28 L34,28 C33.4477153,28 33,27.5522847 33,27 C33,26.4477153 33.4477153,26 34,26 L37,26 L37,24 L34,24 C33.4477153,24 33,23.5522847 33,23 C33,22.4477153 33.4477153,22 34,22 L35.5857864,22 L33.2928932,19.7071068 C32.9023689,19.3165825 32.9023689,18.6834175 33.2928932,18.2928932 C33.6834175,17.9023689 34.3165825,17.9023689 34.7071068,18.2928932 L38,21.5857864 L41.2928932,18.2928932 C41.6834175,17.9023689 42.3165825,17.9023689 42.7071068,18.2928932 C43.0976311,18.6834175 43.0976311,19.3165825 42.7071068,19.7071068 L40.4142136,22 Z M49,22 L65,22 C65.5522847,22 66,22.4477153 66,23 C66,23.5522847 65.5522847,24 65,24 L49,24 C48.4477153,24 48,23.5522847 48,23 C48,22.4477153 48.4477153,22 49,22 Z M49,26 L65,26 C65.5522847,26 66,26.4477153 66,27 C66,27.5522847 65.5522847,28 65,28 L49,28 C48.4477153,28 48,27.5522847 48,27 C48,26.4477153 48.4477153,26 49,26 Z M40.4142136,44 L42,44 C42.5522847,44 43,44.4477153 43,45 C43,45.5522847 42.5522847,46 42,46 L39,46 L39,48 L42,48 C42.5522847,48 43,48.4477153 43,49 C43,49.5522847 42.5522847,50 42,50 L39,50 L39,53 C39,53.5522847 38.5522847,54 38,54 C37.4477153,54 37,53.5522847 37,53 L37,50 L34,50 C33.4477153,50 33,49.5522847 33,49 C33,48.4477153 33.4477153,48 34,48 L37,48 L37,46 L34,46 C33.4477153,46 33,45.5522847 33,45 C33,44.4477153 33.4477153,44 34,44 L35.5857864,44 L33.2928932,41.7071068 C32.9023689,41.3165825 32.9023689,40.6834175 33.2928932,40.2928932 C33.6834175,39.9023689 34.3165825,39.9023689 34.7071068,40.2928932 L38,43.5857864 L41.2928932,40.2928932 C41.6834175,39.9023689 42.3165825,39.9023689 42.7071068,40.2928932 C43.0976311,40.6834175 43.0976311,41.3165825 42.7071068,41.7071068 L40.4142136,44 Z M49,44 L65,44 C65.5522847,44 66,44.4477153 66,45 C66,45.5522847 65.5522847,46 65,46 L49,46 C48.4477153,46 48,45.5522847 48,45 C48,44.4477153 48.4477153,44 49,44 Z M49,48 L65,48 C65.5522847,48 66,48.4477153 66,49 C66,49.5522847 65.5522847,50 65,50 L49,50 C48.4477153,50 48,49.5522847 48,49 C48,48.4477153 48.4477153,48 49,48 Z M40.4142136,65 L42,65 C42.5522847,65 43,65.4477153 43,66 C43,66.5522847 42.5522847,67 42,67 L39,67 L39,69 L42,69 C42.5522847,69 43,69.4477153 43,70 C43,70.5522847 42.5522847,71 42,71 L39,71 L39,74 C39,74.5522847 38.5522847,75 38,75 C37.4477153,75 37,74.5522847 37,74 L37,71 L34,71 C33.4477153,71 33,70.5522847 33,70 C33,69.4477153 33.4477153,69 34,69 L37,69 L37,67 L34,67 C33.4477153,67 33,66.5522847 33,66 C33,65.4477153 33.4477153,65 34,65 L35.5857864,65 L33.2928932,62.7071068 C32.9023689,62.3165825 32.9023689,61.6834175 33.2928932,61.2928932 C33.6834175,60.9023689 34.3165825,60.9023689 34.7071068,61.2928932 L38,64.5857864 L41.2928932,61.2928932 C41.6834175,60.9023689 42.3165825,60.9023689 42.7071068,61.2928932 C43.0976311,61.6834175 43.0976311,62.3165825 42.7071068,62.7071068 L40.4142136,65 Z M49,65 L65,65 C65.5522847,65 66,65.4477153 66,66 C66,66.5522847 65.5522847,67 65,67 L49,67 C48.4477153,67 48,66.5522847 48,66 C48,65.4477153 48.4477153,65 49,65 Z M49,69 L65,69 C65.5522847,69 66,69.4477153 66,70 C66,70.5522847 65.5522847,71 65,71 L49,71 C48.4477153,71 48,70.5522847 48,70 C48,69.4477153 48.4477153,69 49,69 Z" id="Combined-Shape" fill="#FF787B"></path>
            <path d="M93,14 C93,9.581722 89.418278,6 85,6 C80.581722,6 77,9.581722 77,14 L93,14 Z" id="Oval" stroke="#FF787B" stroke-width="2" fill-opacity="0.3" fill="#FF787B" stroke-linejoin="round"></path>
            <path d="M69,88 L15,88 C10.581722,88 7,84.418278 7,80 L23,80 L61,80 C61,84.418278 64.581722,88 69,88 Z" id="Combined-Shape" stroke="#FF787B" stroke-width="2" fill-opacity="0.3" fill="#FF787B" stroke-linejoin="round"></path>
        </g>
    </g>
</svg>