<?xml version="1.0" encoding="UTF-8"?>
<svg width="100px" height="100px" viewBox="0 0 100 100" version="1.1" xmlns="http://www.w3.org/2000/svg" xmlns:xlink="http://www.w3.org/1999/xlink">
    <!-- Generator: Sketch 55.1 (78136) - https://sketchapp.com -->
    <title>icon_deal_recall</title>
    <desc>Created with Sketch.</desc>
    <g id="主页-黑色" stroke="none" stroke-width="1" fill="none" fill-rule="evenodd">
        <g id="撤">
            <circle id="Oval-Copy-3" stroke="#3AAAFF" stroke-width="2" cx="50" cy="50" r="49"></circle>
            <path d="M52.9854566,47 C52.9679326,46.6844387 52.9347516,46.3477545 52.8868883,46 L42,46 C41.4477153,46 41,45.5522847 41,45 L41,43 C41,42.52305 41.3339039,42.1240874 41.7807038,42.0241203 L44.2,39 L41,39 C40.4477153,39 40,38.5522847 40,38 L40,36 C40,35.4477153 40.4477153,35 41,35 L47,35 L47,32 C47,31.4477153 47.4477153,31 48,31 L50,31 C50.5522847,31 51,31.4477153 51,32 L51,33 C51,34.1045695 50.1045695,35 49,35 L55,35 C55.5522847,35 56,35.4477153 56,36 L56,38 C56,38.5522847 55.5522847,39 55,39 L48.2,39 L45.8,42 L51.7029482,42 C51.4900805,41.5980762 51.2548001,41.2548001 51,41 C50,40 50,38.5 52,40 C53.243002,40.9322515 54.2319604,41.9340886 54.9792115,43.0190857 C55.8072396,41.6376058 56.4808358,40.2979105 57,39 C57.8042238,36.9894406 58.4282397,34.6032196 58.8720479,31.8413372 C58.9499611,31.3565204 59.3683445,31 59.8593819,31 L61.9037326,31 C62.4560228,30.9999901 62.9037425,31.4477098 62.9037425,32 C62.9037425,32.035871 62.9018124,32.0717159 62.8979607,32.1073795 C62.7453603,33.5203081 62.5158343,34.8178483 62.2093827,36 L70,36 C70.5522847,36 71,36.4477153 71,37 L71,39 C71,39.5522847 70.5522847,40 70,40 L69,40 C68.4064782,48.2592085 67.3781147,54.1263913 65.9149097,57.6015484 C67.1971302,59.4014992 68.558827,60.8676498 70,62 L70,69 C67.6028222,66.6028222 65.3652684,64.3652684 63.4467747,61.5220447 C60.8500928,64.8063072 56.8547543,68.7580983 55,69.5 C54.5093826,69.6962469 53.5,70 54.5,69 C57.8327863,65.0245434 60.2585929,61.5963222 61.7774199,58.7153363 C59.8705132,55.0462057 58.4222328,50.3297326 57.6544712,43.5008329 C57.1146919,43.9401779 56.5349674,44.3395777 55.9152977,44.6990324 C56.1670809,45.2769148 56.3614874,45.8766935 56.5,46.5 L53.711038,47.2968463 C53.8896908,47.4774897 54,47.7258628 54,48 L54,66 C54,68.209139 52.209139,70 50,70 L50,65 L46,65 L46,66 C46,68.209139 44.209139,70 42,70 L42,48 C42,47.4477153 42.4477153,47 43,47 L45,47 C45.5522847,47 46,47.4477153 46,48 L46,49 L50,49 L50,48 C50,47.4477153 50.4477153,47 51,47 L52.9854566,47 Z M59.0031648,42.2302404 C60.3802364,46.8094758 61.9226244,50.6943821 63.6303288,53.8849593 C64.4479158,50.5564378 64.9044729,45.928118 65,40 L60.6387356,40 C60.4379812,40.3515696 60.2250694,40.6849029 60,41 C59.6906839,41.4330425 59.3584055,41.8431226 59.0031648,42.2302404 Z M33,52 L33,44 L30,44 C29.4477153,44 29,43.5522847 29,43 L29,41 C29,40.4477153 29.4477153,40 30,40 L33,40 L33,31 C33,30.4477153 33.4477153,30 34,30 L36,30 C36.5522847,30 37,30.4477153 37,31 L37,40 L40,40 C40.5522847,40 41,40.4477153 41,41 L41,43 C41,43.5522847 40.5522847,44 40,44 L37,44 L37,50 L39.5527864,48.7236068 C40.0467649,48.4766175 40.6474379,48.6768419 40.8944272,49.1708204 C40.9638549,49.3096758 41,49.4627889 41,49.618034 L41,51.381966 C41,51.7607381 40.7859976,52.1070012 40.4472136,52.2763932 L37,54 L37,66 C37,68.209139 35.209139,70 33,70 L33,56 L30.4472136,57.2763932 C29.9532351,57.5233825 29.3525621,57.3231581 29.1055728,56.8291796 C29.0361451,56.6903242 29,56.5372111 29,56.381966 L29,54.618034 C29,54.2392619 29.2140024,53.8929988 29.5527864,53.7236068 L33,52 Z M46,61 L50,61 L50,59 L46,59 L46,61 Z M46,55 L50,55 L50,53 L46,53 L46,55 Z" id="Combined-Shape" fill="#3AAAFF"></path>
        </g>
    </g>
</svg>