<?xml version="1.0" encoding="UTF-8"?>
<svg width="100px" height="100px" viewBox="0 0 100 100" version="1.1" xmlns="http://www.w3.org/2000/svg" xmlns:xlink="http://www.w3.org/1999/xlink">
    <!-- Generator: Sketch 54.1 (76490) - https://sketchapp.com -->
    <title>icon_query_history_deal</title>
    <desc>Created with Sketch.</desc>
    <g id="主页-黑色" stroke="none" stroke-width="1" fill="none" fill-rule="evenodd">
        <g id="icon_query_history_deal">
            <rect id="Rectangle-Copy" x="0" y="0" width="100" height="100"></rect>
            <g id="Group-18" transform="translate(55.723205, 27.393332) rotate(12.000000) translate(-55.723205, -27.393332) translate(25.223205, 6.893332)">
                <path d="M0.912355287,5.30716647 C2.13281108,2.44936915 4.96895178,0.446522937 8.27288228,0.446522937 L10.0403241,0.446522937 L50.5054404,0.446522937 L52.2728823,0.446522937 C56.6911603,0.446522937 60.2728823,4.02824494 60.2728823,8.44652294 C60.2728823,22.3797697 60.2728823,32.8297048 60.2728823,39.7963282" id="Path" stroke="#FF787B" stroke-width="2"></path>
                <path d="M55.5523172,40.8358867 L51.8028805,6.36210351 C57.0196677,5.25324116 59.7320171,5.18788378 59.9399288,6.16603138 C60.132818,7.07350352 60.1507868,16.8175635 59.9938353,35.3982112 L59.9938161,35.398211 C59.971602,38.0280263 58.1247565,40.2890978 55.5523172,40.8358867 L55.5523172,40.8358867 Z" id="Rectangle-Copy-25" fill="#FF787B" opacity="0.049999997"></path>
            </g>
            <g id="Group-18" transform="translate(48.879186, 29.442787) rotate(6.000000) translate(-48.879186, -29.442787) translate(17.879186, 7.942787)">
                <path d="M0.722307225,6.67423872 C1.59361498,3.19949556 4.73753221,0.626318132 8.48244723,0.626318132 L10.2498891,0.626318132 L50.7150054,0.626318132 L52.4824472,0.626318132 C56.9007252,0.626318132 60.4824472,4.20804013 60.4824472,8.62631813 C60.4824472,23.2766399 60.4824472,34.2643813 60.4824472,41.5895422" id="Path" stroke="#FF787B" stroke-width="2"></path>
                <path d="M56.1371153,39.4721128 L52.7451154,7.19938972 C58.0143893,6.31039728 60.7012906,6.36316201 60.805819,7.35768391 C60.906311,8.31380138 61.1181285,19.1712884 61.4412716,39.9301449 L61.4412724,39.9301449 C61.4609374,41.1934324 60.4527822,42.2334709 59.1894947,42.2531358 C59.1069449,42.2544208 59.0243861,42.2512362 58.9421806,42.2435958 L58.9421806,42.2435958 C57.4661109,42.1064069 56.2920715,40.9464231 56.1371153,39.4721128 Z" id="Rectangle-Copy-25" fill="#FF787B" opacity="0.100000001"></path>
            </g>
            <g id="Group-2" transform="translate(12.000000, 11.493501)">
                <path d="M9,84 L8,84 C3.581722,84 5.55111512e-16,80.418278 0,76 L0,8 C-5.55111512e-16,3.581722 3.581722,8.04911693e-16 8,0 L8,0 L9.76744186,0 L50.2325581,0 L52,0 C56.418278,-8.04911693e-16 60,3.581722 60,8 L60,41" id="Path" stroke="#FF787B" stroke-width="2"></path>
                <path d="M14,5 L15.7674419,5 L56.2325581,5 L56.2325581,5 C58.3132588,5 60,6.68674118 60,8.76744186 L60,41 L50,41 L35,51 L12,51 L9,53 L9.5,84 L9.5,84 C8.89067649,84.8704622 7.69107319,85.0821569 6.82061104,84.4728333 C6.30630422,84.1128186 6,83.5245137 6,82.8967222 L6,13 C6,8.581722 9.581722,5 14,5 Z" id="Rectangle-Copy-25" fill="#FF787B" opacity="0.200000003"></path>
                <g id="Group-17" transform="translate(32.859650, 28.859650) rotate(-45.000000) translate(-32.859650, -28.859650) translate(20.859650, 11.359650)" fill="#FF787B" fill-opacity="0.3" stroke="#FF787B" stroke-width="2">
                    <rect id="Rectangle" x="4" y="2" width="16" height="8"></rect>
                    <rect id="Rectangle" x="0" y="0" width="4" height="12" rx="2"></rect>
                    <rect id="Rectangle-Copy-18" x="20" y="0" width="4" height="12" rx="2"></rect>
                    <path d="M10,10 L14,10 L14,33 C14,34.1045695 13.1045695,35 12,35 L12,35 C10.8954305,35 10,34.1045695 10,33 L10,10 Z" id="Rectangle"></path>
                </g>
            </g>
            <path d="M24.968255,62.1907281 L47.6572396,62.0106568 C48.5285211,62.0037419 49.3737172,61.7125252 50.0643376,61.1812788 L60.9216447,52.829504 C61.6208792,52.2916314 62.4783111,52 63.3604878,52 L85,52 C87.209139,52 89,53.790861 89,56 L89,94 C89,96.209139 87.209139,98 85,98 L25,98 C22.790861,98 21,96.209139 21,94 L21,66.1906022 C21,63.9938503 22.7715723,62.2081621 24.968255,62.1907281 Z" id="Rectangle" stroke="#FF787B" stroke-width="2" fill-opacity="0.3" fill="#FF787B"></path>
        </g>
    </g>
</svg>