<?xml version="1.0" encoding="UTF-8"?>
<svg width="40px" height="40px" viewBox="0 0 40 40" version="1.1" xmlns="http://www.w3.org/2000/svg" xmlns:xlink="http://www.w3.org/1999/xlink">
    <!-- Generator: Sketch 55.1 (78136) - https://sketchapp.com -->
    <title>icon_history</title>
    <desc>Created with Sketch.</desc>
    <g id="主页-黑色" stroke="none" stroke-width="1" fill="none" fill-rule="evenodd">
        <g id="icon_history">
            <rect id="Rectangle" x="0" y="0" width="40" height="40"></rect>
            <g id="Group" transform="translate(2.000000, 2.000000)">
                <path d="M0,18 C0,27.9411255 8.0588745,36 18,36 L18,36 C27.9411255,36 36,27.9411255 36,18 C36,8.0588745 27.9411255,0 18,0 C12.9058123,0 8.30588558,2.11618272 5.03135044,5.51741753" id="Path" stroke="#FFFFFF" stroke-width="2" stroke-linecap="round"></path>
                <polyline id="Path" stroke="#FFFFFF" stroke-width="2" stroke-linecap="round" stroke-linejoin="round" points="9 6 5 6 5 2 5 2"></polyline>
                <path d="M20,18 L27,18 C27.5522847,18 28,18.4477153 28,19 C28,19.5522847 27.5522847,20 27,20 L19,20 C18.7238576,20 18.4738576,19.8880712 18.2928932,19.7071068 C18.1119288,19.5261424 18,19.2761424 18,19 L18,7 C18,6.44771525 18.4477153,6 19,6 C19.5522847,6 20,6.44771525 20,7 L20,18 Z" id="Combined-Shape" fill="#FFFFFF"></path>
            </g>
        </g>
    </g>
</svg>