<?xml version="1.0" encoding="UTF-8"?>
<svg width="100px" height="100px" viewBox="0 0 100 100" version="1.1" xmlns="http://www.w3.org/2000/svg" xmlns:xlink="http://www.w3.org/1999/xlink">
    <!-- Generator: Sketch 54.1 (76490) - https://sketchapp.com -->
    <title>icon_qurey_settlement</title>
    <desc>Created with Sketch.</desc>
    <g id="主页-黑色" stroke="none" stroke-width="1" fill="none" fill-rule="evenodd">
        <g id="icon_qurey_settlement">
            <rect id="Rectangle" x="0" y="0" width="100" height="100"></rect>
            <path d="M13.1667068,20.6933326 C16.4885383,20.6933326 20.2646304,20.6933326 24.4949829,20.6933326 M44.9469714,26.8742637 C45.6562026,25.0513651 46.1122295,23.7984416 46.3150519,23.1154932 C46.5201444,22.4249014 46.6759899,21.6175145 46.7825884,20.6933326 C50.8131955,20.6933326 57.8263556,20.6933326 67.8220687,20.6933326 C70.0312077,20.6933326 71.8220687,22.4841936 71.8220687,24.6933326 L71.8220687,31.8801908" id="Shape" stroke="#FF787B" stroke-width="2" fill-opacity="0.1" fill="#FF787B" transform="translate(42.494388, 26.286762) rotate(-20.000000) translate(-42.494388, -26.286762) "></path>
            <path d="M41.9032715,27.6955033 C42.8623364,26.6523881 43.4994471,25.9185391 43.8146036,25.4939562 C44.2395049,24.9215236 44.8766156,24.1876745 45.7259357,23.2924091 C52.5119442,23.2924091 62.5268224,23.2645839 75.7705703,23.2089335 C77.9797093,23.2089335 79.7705703,24.9997945 79.7705703,27.2089335 C79.7705703,30.3965 79.7705703,32.7871749 79.7705703,34.3809581" id="Path" stroke="#FF787B" stroke-width="2" fill-opacity="0.2" fill="#FF787B" transform="translate(60.836921, 28.794946) rotate(-10.000000) translate(-60.836921, -28.794946) "></path>
            <path d="M41.5,31 C43.679973,28.9900115 45,26.1989738 45,23 C45,16.9248678 40.0751322,12 34,12 C27.9248678,12 23,16.9248678 23,23 C23,26.1683148 24.3564315,28.9928081 26.5,31 L41.5,31 Z" id="Oval" stroke="#FF787B" stroke-width="2"></path>
            <path d="M36.4142136,20 L38,20 C38.5522847,20 39,20.4477153 39,21 C39,21.5522847 38.5522847,22 38,22 L35,22 L35,24 L38,24 C38.5522847,24 39,24.4477153 39,25 C39,25.5522847 38.5522847,26 38,26 L35,26 L35,29 C35,29.5522847 34.5522847,30 34,30 C33.4477153,30 33,29.5522847 33,29 L33,26 L30,26 C29.4477153,26 29,25.5522847 29,25 C29,24.4477153 29.4477153,24 30,24 L33,24 L33,22 L30,22 C29.4477153,22 29,21.5522847 29,21 C29,20.4477153 29.4477153,20 30,20 L31.5857864,20 L29.2928932,17.7071068 C28.9023689,17.3165825 28.9023689,16.6834175 29.2928932,16.2928932 C29.6834175,15.9023689 30.3165825,15.9023689 30.7071068,16.2928932 L34,19.5857864 L37.2928932,16.2928932 C37.6834175,15.9023689 38.3165825,15.9023689 38.7071068,16.2928932 C39.0976311,16.6834175 39.0976311,17.3165825 38.7071068,17.7071068 L36.4142136,20 Z" id="Combined-Shape" fill="#FF787B" transform="translate(34.000000, 23.000000) rotate(-8.000000) translate(-34.000000, -23.000000) "></path>
            <path d="M88,66 L88,81 C88,83.209139 86.209139,85 84,85 L12,85 C9.790861,85 8,83.209139 8,81 L8,35 C8,32.790861 9.790861,31 12,31 L12,31 L84,31 C86.209139,31 88,32.790861 88,35 L88,50" id="Path" stroke="#FF787B" stroke-width="2"></path>
            <rect id="Rectangle" fill="#FF787B" opacity="0.200000003" x="15" y="36" width="80" height="54" rx="4"></rect>
            <rect id="Rectangle" fill="#FF787B" x="14" y="73" width="68" height="2" rx="1"></rect>
            <rect id="Rectangle" stroke="#FF787B" stroke-width="2" fill-opacity="0.3" fill="#FF787B" x="64" y="50" width="28" height="16" rx="4"></rect>
            <rect id="Rectangle" fill="#FF787B" x="70" y="56" width="8" height="4" rx="2"></rect>
        </g>
    </g>
</svg>