<?xml version="1.0" encoding="UTF-8"?>
<svg width="100px" height="100px" viewBox="0 0 100 100" version="1.1" xmlns="http://www.w3.org/2000/svg" xmlns:xlink="http://www.w3.org/1999/xlink">
    <!-- Generator: Sketch 55.1 (78136) - https://sketchapp.com -->
    <title>icon_deal_query</title>
    <desc>Created with Sketch.</desc>
    <g id="主页-黑色" stroke="none" stroke-width="1" fill="none" fill-rule="evenodd">
        <g id="查">
            <circle id="Oval-Copy-4" stroke="#3AAAFF" stroke-width="2" cx="50" cy="50" r="49"></circle>
            <path d="M40.0204238,47.7979414 C36.7229288,49.8398146 33.4726198,51.366218 31.76,52 C30.7466667,52 30.7466667,51.5 31.76,51 C37.4063829,47.7740541 41.7454745,43.7740541 44.7772748,39 L34,39 C33.4477153,39 33,38.5522847 33,38 L33,36 C33,35.4477153 33.4477153,35 34,35 L49,35 L49,31 C49,30.4477153 49.4477153,30 50,30 L52,30 C52.5522847,30 53,30.4477153 53,31 L53,35 L68,35 C68.5522847,35 69,35.4477153 69,36 L69,38 C69,38.5522847 68.5522847,39 68,39 L55.6473081,39 C58.1160543,41.4533333 62.2336182,43.9066667 68,46.36 L67,50 C65.1511682,49.2789556 63.4625635,48.4931082 61.9341859,47.6424578 C61.9767044,47.7534824 62,47.8740207 62,48 L62,61 C62,63.209139 60.209139,65 58,65 L58,62 L43.8739825,62 C43.4299397,63.7252272 41.8638394,65 40,65 L40,48 C40,47.9307792 40.0070331,47.8632012 40.0204238,47.7979414 Z M41.2696574,47 L43,47 C43.5522847,47 44,47.4477153 44,48 L44,49 L58,49 L58,48 C58,47.4477153 58.4477153,47 59,47 L60.8305487,47 C57.2329053,44.8087439 54.6227224,42.2181148 53,39.2281129 L53,44 C53,46.209139 51.209139,48 49,48 L49,39.8402417 C47.4182818,42.4345501 44.4083741,44.930733 41.2696574,47 Z M44,57 L44,59 L58,59 L58,57 L44,57 Z M44,54 L58,54 L58,52 L44,52 L44,54 Z M34,66 L68,66 C68.5522847,66 69,66.4477153 69,67 L69,69 C69,69.5522847 68.5522847,70 68,70 L34,70 C33.4477153,70 33,69.5522847 33,69 L33,67 C33,66.4477153 33.4477153,66 34,66 Z" id="Combined-Shape" fill="#3AAAFF"></path>
        </g>
    </g>
</svg>