<?xml version="1.0" encoding="UTF-8"?>
<svg width="100px" height="100px" viewBox="0 0 100 100" version="1.1" xmlns="http://www.w3.org/2000/svg" xmlns:xlink="http://www.w3.org/1999/xlink">
    <!-- Generator: Sketch 55.1 (78136) - https://sketchapp.com -->
    <title>icon_deal_buy</title>
    <desc>Created with Sketch.</desc>
    <g id="主页-黑色" stroke="none" stroke-width="1" fill="none" fill-rule="evenodd">
        <g id="买">
            <circle id="Oval" stroke="#3AAAFF" stroke-width="2" cx="50" cy="50" r="49"></circle>
            <path d="M51.0252648,56.5831249 C47.6192608,61.5350023 41.5244486,65.2624169 33,67 C31.9840053,67.1094951 31.6151659,66.4838961 33,66 C40.4227889,62.1893323 44.7470951,58.9212327 46.8637776,56 L32,56 C31.4477153,56 31,55.5522847 31,55 L31,53 C31,52.4477153 31.4477153,52 32,52 L48.6042982,52 C49.5474374,48.455594 50.3187983,43.4250483 50.9183808,36.908363 C50.9657447,36.3937611 51.3973979,36 51.9141749,36 L54.9010959,36 C55.4533689,36.0000214 55.9010745,36.4477271 55.9010745,37 C55.9010745,37.0325522 55.899485,37.065085 55.8963117,37.0974821 C55.2662269,43.5301536 54.3767802,48.4976596 53.2279715,52 L69,52 C69,54.209139 67.209139,56 65,56 L54.4577301,56 C57.8976839,59.5339741 62.4107073,61.8112966 67.9968003,62.8319675 C68.0022675,62.8329665 68.0077262,62.834011 68.0131759,62.8351009 C68.5547408,62.9434139 68.9059608,63.4702439 68.7976386,64.0118069 L68.2262069,66.8689656 C68.2165865,66.9170677 68.2034396,66.9643967 68.1868729,67.0105693 C68.0003558,67.5304035 67.4277449,67.8006104 66.9079095,67.6140967 C62.1555668,65.9089509 58.8529303,64.3709186 57,63 C54.9430492,61.5545497 52.9514708,59.4155914 51.0252648,56.5831249 Z M66.7071068,30.2928932 C66.8880712,30.4738576 67,30.7238576 67,31 L67,38 C67,40.209139 65.209139,42 63,42 L63,34 L34,34 C33.4477153,34 33,33.5522847 33,33 L33,31 C33,30.4477153 33.4477153,30 34,30 L66,30 C66.2761424,30 66.5261424,30.1119288 66.7071068,30.2928932 Z M35,44 C39.3194462,43.5087188 43.0460945,44.6788687 46,48 L42,50 C40.9186702,46.6064244 36.6956062,45.1520348 35,45 C33.8048084,45.1520348 33.6505232,44.3577558 35,44 Z M37,38 C41.3194462,37.5087188 45.0460945,38.6788687 48,42 L44,44 C42.9186702,40.6064244 38.6956062,39.1520348 37,39 C35.8048084,39.1520348 35.6505232,38.3577558 37,38 Z" id="Combined-Shape" fill="#3AAAFF"></path>
        </g>
    </g>
</svg>