<?xml version="1.0" encoding="UTF-8"?>
<svg width="200px" height="200px" viewBox="0 0 200 200" version="1.1" xmlns="http://www.w3.org/2000/svg" xmlns:xlink="http://www.w3.org/1999/xlink">
    <!-- Generator: Sketch 54.1 (76490) - https://sketchapp.com -->
    <title>img_nodata</title>
    <desc>Created with Sketch.</desc>
    <g id="主页-黑色" stroke="none" stroke-width="1" fill="none" fill-rule="evenodd">
        <g id="img_nodata">
            <rect id="Rectangle" x="0" y="0" width="200" height="200"></rect>
            <g id="Group-5-Copy-9" transform="translate(12.000000, 17.000000)">
                <path d="M42,78.8260682 C39.1333,78.1489044 37,75.5735816 37,72.5 C37,69.4264184 39.1333,66.8510956 42,66.1739318 L42,78.8260682 Z M121.411765,66 L146.5,66 C150.089851,66 153,68.9101491 153,72.5 C153,76.0898509 150.089851,79 146.5,79 L136,79 C139.313708,79 142,81.6862915 142,85 C142,88.3137085 139.313708,91 136,91 L166,91 C169.313708,91 172,93.6862915 172,97 C172,100.313708 169.313708,103 166,103 L129,103 C132.313708,103 135,105.686292 135,109 C135,112.313708 132.313708,115 129,115 L120,115 C123.313708,115 126,117.686292 126,121 C126,124.313708 123.313708,127 120,127 L102,127 L121,108 L121.411765,66 Z M51,127 L43,127 C39.6862915,127 37,124.313708 37,121 C37,118.027004 39.1622867,115.559037 42,115.082958 L42,120 C42,122 43.1666667,123.333333 45.5,124 L51,124 L51,127 Z M42,115 L30,115 C26.6862915,115 24,112.313708 24,109 C24,105.686292 26.6862915,103 30,103 L6,103 C2.6862915,103 -4.05812251e-16,100.313708 0,97 C4.05812251e-16,93.6862915 2.6862915,91 6,91 L21,91 C17.6862915,91 15,88.3137085 15,85 C15,81.6862915 17.6862915,79 21,79 L42,79 L42,115 Z" id="Combined-Shape" fill="#FF787B" opacity="0.149999991"></path>
                <g id="Group" transform="translate(1.000000, 0.000000)" fill="#FF787B">
                    <path d="M36,26 L36,24 C36,23.4477153 36.4477153,23 37,23 C37.5522847,23 38,23.4477153 38,24 L38,26 L40,26 C40.5522847,26 41,26.4477153 41,27 C41,27.5522847 40.5522847,28 40,28 L38,28 L38,30 C38,30.5522847 37.5522847,31 37,31 C36.4477153,31 36,30.5522847 36,30 L36,28 L34,28 C33.4477153,28 33,27.5522847 33,27 C33,26.4477153 33.4477153,26 34,26 L36,26 Z M171,65 L171,63 C171,62.4477153 171.447715,62 172,62 C172.552285,62 173,62.4477153 173,63 L173,65 L175,65 C175.552285,65 176,65.4477153 176,66 C176,66.5522847 175.552285,67 175,67 L173,67 L173,69 C173,69.5522847 172.552285,70 172,70 C171.447715,70 171,69.5522847 171,69 L171,67 L169,67 C168.447715,67 168,66.5522847 168,66 C168,65.4477153 168.447715,65 169,65 L171,65 Z M2,29 L2,27.5 C2,27.2238576 2.22385763,27 2.5,27 C2.77614237,27 3,27.2238576 3,27.5 L3,29 L4.5,29 C4.77614237,29 5,29.2238576 5,29.5 C5,29.7761424 4.77614237,30 4.5,30 L3,30 L3,31.5 C3,31.7761424 2.77614237,32 2.5,32 C2.22385763,32 2,31.7761424 2,31.5 L2,30 L0.5,30 C0.223857625,30 3.38176876e-17,29.7761424 0,29.5 C-3.38176876e-17,29.2238576 0.223857625,29 0.5,29 L2,29 Z M133,73 L133,71.5 C133,71.2238576 133.223858,71 133.5,71 C133.776142,71 134,71.2238576 134,71.5 L134,73 L135.5,73 C135.776142,73 136,73.2238576 136,73.5 C136,73.7761424 135.776142,74 135.5,74 L134,74 L134,75.5 C134,75.7761424 133.776142,76 133.5,76 C133.223858,76 133,75.7761424 133,75.5 L133,74 L131.5,74 C131.223858,74 131,73.7761424 131,73.5 C131,73.2238576 131.223858,73 131.5,73 L133,73 Z M53,34 L53,32.5 C53,32.2238576 53.2238576,32 53.5,32 C53.7761424,32 54,32.2238576 54,32.5 L54,34 L55.5,34 C55.7761424,34 56,34.2238576 56,34.5 C56,34.7761424 55.7761424,35 55.5,35 L54,35 L54,36.5 C54,36.7761424 53.7761424,37 53.5,37 C53.2238576,37 53,36.7761424 53,36.5 L53,35 L51.5,35 C51.2238576,35 51,34.7761424 51,34.5 C51,34.2238576 51.2238576,34 51.5,34 L53,34 Z M150,20 L150,18.5 C150,18.2238576 150.223858,18 150.5,18 C150.776142,18 151,18.2238576 151,18.5 L151,20 L152.5,20 C152.776142,20 153,20.2238576 153,20.5 C153,20.7761424 152.776142,21 152.5,21 L151,21 L151,22.5 C151,22.7761424 150.776142,23 150.5,23 C150.223858,23 150,22.7761424 150,22.5 L150,21 L148.5,21 C148.223858,21 148,20.7761424 148,20.5 C148,20.2238576 148.223858,20 148.5,20 L150,20 Z M33,60 L33,59.5 C33,59.2238576 33.2238576,59 33.5,59 C33.7761424,59 34,59.2238576 34,59.5 L34,60 L34.5,60 C34.7761424,60 35,60.2238576 35,60.5 C35,60.7761424 34.7761424,61 34.5,61 L34,61 L34,61.5 C34,61.7761424 33.7761424,62 33.5,62 C33.2238576,62 33,61.7761424 33,61.5 L33,61 L32.5,61 C32.2238576,61 32,60.7761424 32,60.5 C32,60.2238576 32.2238576,60 32.5,60 L33,60 Z M136,47 L136,46.5 C136,46.2238576 136.223858,46 136.5,46 C136.776142,46 137,46.2238576 137,46.5 L137,47 L137.5,47 C137.776142,47 138,47.2238576 138,47.5 C138,47.7761424 137.776142,48 137.5,48 L137,48 L137,48.5 C137,48.7761424 136.776142,49 136.5,49 C136.223858,49 136,48.7761424 136,48.5 L136,48 L135.5,48 C135.223858,48 135,47.7761424 135,47.5 C135,47.2238576 135.223858,47 135.5,47 L136,47 Z M4,72 L4,71.2 C4,71.0895431 4.08954305,71 4.2,71 C4.31045695,71 4.4,71.0895431 4.4,71.2 L4.4,72 L4.8,72 C4.91045695,72 5,72.0895431 5,72.2 C5,72.3104569 4.91045695,72.4 4.8,72.4 L4.4,72.4 L4.4,72.8 C4.4,72.9104569 4.31045695,73 4.2,73 C4.08954305,73 4,72.9104569 4,72.8 L4,72.4 L3.2,72.4 C3.08954305,72.4 3,72.3104569 3,72.2 C3,72.0895431 3.08954305,72 3.2,72 L4,72 Z M120,55 L120,54.2 C120,54.0895431 120.089543,54 120.2,54 C120.310457,54 120.4,54.0895431 120.4,54.2 L120.4,55 L120.8,55 C120.910457,55 121,55.0895431 121,55.2 C121,55.3104569 120.910457,55.4 120.8,55.4 L120.4,55.4 L120.4,55.8 C120.4,55.9104569 120.310457,56 120.2,56 C120.089543,56 120,55.9104569 120,55.8 L120,55.4 L119.2,55.4 C119.089543,55.4 119,55.3104569 119,55.2 C119,55.0895431 119.089543,55 119.2,55 L120,55 Z M85,1 L85,0.2 C85,0.08954305 85.0895431,2.02906125e-17 85.2,0 C85.3104569,-2.02906125e-17 85.4,0.08954305 85.4,0.2 L85.4,1 L85.8,1 C85.9104569,1 86,1.08954305 86,1.2 C86,1.31045695 85.9104569,1.4 85.8,1.4 L85.4,1.4 L85.4,1.8 C85.4,1.91045695 85.3104569,2 85.2,2 C85.0895431,2 85,1.91045695 85,1.8 L85,1.4 L84.2,1.4 C84.0895431,1.4 84,1.31045695 84,1.2 C84,1.08954305 84.0895431,1 84.2,1 L85,1 Z" id="Combined-Shape"></path>
                </g>
                <path d="M37,166 C36.4477153,166 36,165.552285 36,165 C36,164.447715 36.4477153,164 37,164 L62.4770545,164 C63.0293393,164 63.4770545,164.447715 63.4770545,165 C63.4770545,165.552285 63.0293393,166 62.4770545,166 L37,166 Z M67.41995,166 C66.8676653,166 66.41995,165.552285 66.41995,165 C66.41995,164.447715 66.8676653,164 67.41995,164 L87.8365171,164 C88.3888018,164 88.8365171,164.447715 88.8365171,165 C88.8365171,165.552285 88.3888018,166 87.8365171,166 L67.41995,166 Z M92.5388414,166 C91.9865566,166 91.5388414,165.552285 91.5388414,165 C91.5388414,164.447715 91.9865566,164 92.5388414,164 L135,164 C135.552285,164 136,164.447715 136,165 C136,165.552285 135.552285,166 135,166 L92.5388414,166 Z" id="Line" fill="#FF787B" fill-rule="nonzero"></path>
                <g id="Group-19" transform="translate(42.000000, 21.000000)">
                    <path d="M70,28.106821 L70,33 M9,103 C7.88888889,103 6.22222222,103 4,103 C1.790861,103 0,101.209139 0,99 L0,27 C0,24.790861 1.790861,23 4,23 L59.9903597,23" id="Shape" stroke="#FF787B" stroke-width="2" stroke-linecap="round" stroke-linejoin="round"></path>
                    <path d="M79,87 L53,113 L13,113 C10.790861,113 9,111.209139 9,109 L9,37 C9,34.790861 10.790861,33 13,33 L75,33 C77.209139,33 79,34.790861 79,37 L79,87 Z" id="Rectangle-18---Rectangle-18-Copy" stroke="#FF787B" stroke-width="2" stroke-linecap="round" stroke-linejoin="round"></path>
                    <path d="M79,87 L53,113 L53,95 C53,90.581722 56.581722,87 61,87 L79,87 Z" id="Rectangle-18-Copy-∩-Rectangle-18" stroke="#FF787B" stroke-width="2" stroke-linecap="round" stroke-linejoin="round"></path>
                    <path d="M84,91 L58,117 L18,117 C15.790861,117 14,115.209139 14,113 L14,41 C14,38.790861 15.790861,37 18,37 L80,37 C82.209139,37 84,38.790861 84,41 L84,91 Z" id="Rectangle-18---Rectangle-18-Copy" fill="#FF787B" opacity="0.149999991"></path>
                    <path d="M73.2107517,5.37568455 C73.7630364,5.37568455 74.2107517,5.8233998 74.2107517,6.37568455 L74.2107517,16.3756845 C74.2107517,16.9279693 73.7630364,17.3756845 73.2107517,17.3756845 C72.6584669,17.3756845 72.2107517,16.9279693 72.2107517,16.3756845 L72.2107517,6.37568455 C72.2107517,5.8233998 72.6584669,5.37568455 73.2107517,5.37568455 Z M61.0767771,7.87614584 L61.0775761,7.87568455 C61.5558687,7.59954217 62.1674591,7.76341733 62.4436015,8.24170995 L67.4289619,16.8766075 C67.7051043,17.3549001 67.5412291,17.9664905 67.0629365,18.2426329 L67.0621375,18.2430942 C66.5838449,18.5192366 65.9722545,18.3553614 65.6961121,17.8770688 L60.7107517,9.24217124 C60.4346093,8.76387862 60.5984845,8.15228821 61.0767771,7.87614584 Z M85.0621375,7.87568455 L85.0629365,7.87614584 C85.5412291,8.15228821 85.7051043,8.76387862 85.4289619,9.24217124 L80.4436015,17.8770688 C80.1674591,18.3553614 79.5558687,18.5192366 79.0775761,18.2430942 L79.0767771,18.2426329 C78.5984845,17.9664905 78.4346093,17.3549001 78.7107517,16.8766075 L83.6961121,8.24170995 C83.9722545,7.76341733 84.5838449,7.59954217 85.0621375,7.87568455 Z" id="Combined-Shape" fill="#FF787B" transform="translate(73.069857, 11.876460) rotate(30.000000) translate(-73.069857, -11.876460) "></path>
                </g>
            </g>
        </g>
    </g>
</svg>