<?xml version="1.0" encoding="UTF-8"?>
<svg width="200px" height="200px" viewBox="0 0 200 200" version="1.1" xmlns="http://www.w3.org/2000/svg" xmlns:xlink="http://www.w3.org/1999/xlink">
    <!-- Generator: Sketch 54.1 (76490) - https://sketchapp.com -->
    <title>img_search</title>
    <desc>Created with Sketch.</desc>
    <g id="主页-黑色" stroke="none" stroke-width="1" fill="none" fill-rule="evenodd">
        <g id="img_search">
            <circle id="Oval-4-Copy-10" cx="100" cy="100" r="100"></circle>
            <g id="Group-2" transform="translate(17.000000, 17.000000)">
                <path d="M50.486959,66 C43.9738969,73.1153589 40,82.5936028 40,93 C40,106.699731 46.8871553,118.790881 57.3880167,126 L27,126 C23.6862915,126 21,123.313708 21,120 C21,116.686292 23.6862915,114 27,114 L11,114 C7.6862915,114 5,111.313708 5,108 C5,104.686292 7.6862915,102 11,102 L19,102 C15.6862915,102 13,99.3137085 13,96 C13,92.6862915 15.6862915,90 19,90 L6,90 C2.6862915,90 4.05812251e-16,87.3137085 0,84 C-4.05812251e-16,80.6862915 2.6862915,78 6,78 L31,78 C27.6862915,78 25,75.3137085 25,72 C25,68.6862915 27.6862915,66 31,66 L50.486959,66 Z M109.513041,66 L117,66 C120.313708,66 123,68.6862915 123,72 C123,75.2829425 120.363359,77.9500643 117.092134,77.999307 C115.288715,73.5443489 112.706004,69.4882324 109.513041,66 Z M117.092415,78 L130,78 C133.313708,78 136,80.6862915 136,84 C136,87.3137085 133.313708,90 130,90 L154,90 C157.313708,90 160,92.6862915 160,96 C160,99.3137085 157.313708,102 154,102 L141,102 C144.313708,102 147,104.686292 147,108 C147,111.313708 144.313708,114 141,114 L130,114 C133.313708,114 136,116.686292 136,120 C136,123.313708 133.313708,126 130,126 L102.611983,126 C113.112845,118.790881 120,106.699731 120,93 C120,87.6954978 118.967464,82.6321572 117.092415,78 Z" id="Combined-Shape" fill="#FF787B" opacity="0.200000003"></path>
                <path d="M31,26 L31,24 C31,23.4477153 31.4477153,23 32,23 C32.5522847,23 33,23.4477153 33,24 L33,26 L35,26 C35.5522847,26 36,26.4477153 36,27 C36,27.5522847 35.5522847,28 35,28 L33,28 L33,30 C33,30.5522847 32.5522847,31 32,31 C31.4477153,31 31,30.5522847 31,30 L31,28 L29,28 C28.4477153,28 28,27.5522847 28,27 C28,26.4477153 28.4477153,26 29,26 L31,26 Z M166,65 L166,63 C166,62.4477153 166.447715,62 167,62 C167.552285,62 168,62.4477153 168,63 L168,65 L170,65 C170.552285,65 171,65.4477153 171,66 C171,66.5522847 170.552285,67 170,67 L168,67 L168,69 C168,69.5522847 167.552285,70 167,70 C166.447715,70 166,69.5522847 166,69 L166,67 L164,67 C163.447715,67 163,66.5522847 163,66 C163,65.4477153 163.447715,65 164,65 L166,65 Z M128,73 L128,71.5 C128,71.2238576 128.223858,71 128.5,71 C128.776142,71 129,71.2238576 129,71.5 L129,73 L130.5,73 C130.776142,73 131,73.2238576 131,73.5 C131,73.7761424 130.776142,74 130.5,74 L129,74 L129,75.5 C129,75.7761424 128.776142,76 128.5,76 C128.223858,76 128,75.7761424 128,75.5 L128,74 L126.5,74 C126.223858,74 126,73.7761424 126,73.5 C126,73.2238576 126.223858,73 126.5,73 L128,73 Z M67,37 L67,35.5 C67,35.2238576 67.2238576,35 67.5,35 C67.7761424,35 68,35.2238576 68,35.5 L68,37 L69.5,37 C69.7761424,37 70,37.2238576 70,37.5 C70,37.7761424 69.7761424,38 69.5,38 L68,38 L68,39.5 C68,39.7761424 67.7761424,40 67.5,40 C67.2238576,40 67,39.7761424 67,39.5 L67,38 L65.5,38 C65.2238576,38 65,37.7761424 65,37.5 C65,37.2238576 65.2238576,37 65.5,37 L67,37 Z M145,20 L145,18.5 C145,18.2238576 145.223858,18 145.5,18 C145.776142,18 146,18.2238576 146,18.5 L146,20 L147.5,20 C147.776142,20 148,20.2238576 148,20.5 C148,20.7761424 147.776142,21 147.5,21 L146,21 L146,22.5 C146,22.7761424 145.776142,23 145.5,23 C145.223858,23 145,22.7761424 145,22.5 L145,21 L143.5,21 C143.223858,21 143,20.7761424 143,20.5 C143,20.2238576 143.223858,20 143.5,20 L145,20 Z M5,60 L5,59.5 C5,59.2238576 5.22385763,59 5.5,59 C5.77614237,59 6,59.2238576 6,59.5 L6,60 L6.5,60 C6.77614237,60 7,60.2238576 7,60.5 C7,60.7761424 6.77614237,61 6.5,61 L6,61 L6,61.5 C6,61.7761424 5.77614237,62 5.5,62 C5.22385763,62 5,61.7761424 5,61.5 L5,61 L4.5,61 C4.22385763,61 4,60.7761424 4,60.5 C4,60.2238576 4.22385763,60 4.5,60 L5,60 Z M115,55 L115,54.2 C115,54.0895431 115.089543,54 115.2,54 C115.310457,54 115.4,54.0895431 115.4,54.2 L115.4,55 L115.8,55 C115.910457,55 116,55.0895431 116,55.2 C116,55.3104569 115.910457,55.4 115.8,55.4 L115.4,55.4 L115.4,55.8 C115.4,55.9104569 115.310457,56 115.2,56 C115.089543,56 115,55.9104569 115,55.8 L115,55.4 L114.2,55.4 C114.089543,55.4 114,55.3104569 114,55.2 C114,55.0895431 114.089543,55 114.2,55 L115,55 Z M80,1 L80,0.2 C80,0.08954305 80.0895431,2.02906125e-17 80.2,0 C80.3104569,-2.02906125e-17 80.4,0.08954305 80.4,0.2 L80.4,1 L80.8,1 C80.9104569,1 81,1.08954305 81,1.2 C81,1.31045695 80.9104569,1.4 80.8,1.4 L80.4,1.4 L80.4,1.8 C80.4,1.91045695 80.3104569,2 80.2,2 C80.0895431,2 80,1.91045695 80,1.8 L80,1.4 L79.2,1.4 C79.0895431,1.4 79,1.31045695 79,1.2 C79,1.08954305 79.0895431,1 79.2,1 L80,1 Z" id="Combined-Shape" fill="#FF787B"></path>
                <path d="M31,166 C30.4477153,166 30,165.552285 30,165 C30,164.447715 30.4477153,164 31,164 L56.4770545,164 C57.0293393,164 57.4770545,164.447715 57.4770545,165 C57.4770545,165.552285 57.0293393,166 56.4770545,166 L31,166 Z M61.41995,166 C60.8676653,166 60.41995,165.552285 60.41995,165 C60.41995,164.447715 60.8676653,164 61.41995,164 L81.8365171,164 C82.3888018,164 82.8365171,164.447715 82.8365171,165 C82.8365171,165.552285 82.3888018,166 81.8365171,166 L61.41995,166 Z M86.5388414,166 C85.9865566,166 85.5388414,165.552285 85.5388414,165 C85.5388414,164.447715 85.9865566,164 86.5388414,164 L129,164 C129.552285,164 130,164.447715 130,165 C130,165.552285 129.552285,166 129,166 L86.5388414,166 Z" id="Line" fill="#FF787B" fill-rule="nonzero"></path>
                <g id="Group-20" transform="translate(40.000000, 53.000000)">
                    <circle id="Oval-32" stroke="#FF787B" stroke-width="2" cx="40" cy="40" r="40"></circle>
                    <circle id="Oval-32" fill="#FF787B" opacity="0.300000012" cx="46" cy="44" r="40"></circle>
                    <rect id="Rectangle-20" fill="#FF787B" transform="translate(74.778175, 74.778175) rotate(-45.000000) translate(-74.778175, -74.778175) " x="73.7781746" y="64.7781746" width="2" height="20" rx="1"></rect>
                </g>
            </g>
        </g>
    </g>
</svg>