<?xml version="1.0" encoding="UTF-8"?>
<svg width="40px" height="40px" viewBox="0 0 40 40" version="1.1" xmlns="http://www.w3.org/2000/svg" xmlns:xlink="http://www.w3.org/1999/xlink">
    <!-- Generator: Sketch 54.1 (76490) - https://sketchapp.com -->
    <title>icon_buttom_deal_s</title>
    <desc>Created with Sketch.</desc>
    <g id="主页" stroke="none" stroke-width="1" fill="none" fill-rule="evenodd">
        <g id="icon_buttom_deal_s">
            <rect id="Rectangle-12" fill-rule="nonzero" x="0" y="0" width="40" height="40"></rect>
            <path d="M20,40 C8.954305,40 0,31.045695 0,20 C0,8.954305 8.954305,0 20,0 C31.045695,0 40,8.954305 40,20 C40,31.045695 31.045695,40 20,40 Z M22.4142136,17 L26.7071068,12.7071068 C27.0976311,12.3165825 27.0976311,11.6834175 26.7071068,11.2928932 C26.3165825,10.9023689 25.6834175,10.9023689 25.2928932,11.2928932 L20,16.5857864 L14.7071068,11.2928932 C14.3165825,10.9023689 13.6834175,10.9023689 13.2928932,11.2928932 C12.9023689,11.6834175 12.9023689,12.3165825 13.2928932,12.7071068 L17.5857864,17 L14,17 C13.4477153,17 13,17.4477153 13,18 C13,18.5522847 13.4477153,19 14,19 L19,19 L19,23 L14,23 C13.4477153,23 13,23.4477153 13,24 C13,24.5522847 13.4477153,25 14,25 L19,25 L19,30 C19,30.5522847 19.4477153,31 20,31 C20.5522847,31 21,30.5522847 21,30 L21,25 L26,25 C26.5522847,25 27,24.5522847 27,24 C27,23.4477153 26.5522847,23 26,23 L21,23 L21,19 L26,19 C26.5522847,19 27,18.5522847 27,18 C27,17.4477153 26.5522847,17 26,17 L22.4142136,17 Z M9.45249331,9.33462878 C7.92683953,10.8435201 6.73772728,12.6629702 5.97425126,14.6715934 C5.77802518,15.1878432 6.03745559,15.7654189 6.5537053,15.961645 C7.06995502,16.1578711 7.64753077,15.8984407 7.84375686,15.382191 C8.50510224,13.6422624 9.53585834,12.0651116 10.8588735,10.7566326 C11.251549,10.3682715 11.2550465,9.73511615 10.8666853,9.34244063 C10.4783241,8.94976511 9.84516883,8.94626763 9.45249331,9.33462878 Z M5.03449507,18.9752178 C5.01153094,19.3152465 5,19.6569706 5,20 C5,20.5522847 5.44771525,21 6,21 C6.55228475,21 7,20.5522847 7,20 C7,19.7019398 7.01001427,19.4051628 7.02994952,19.1099825 C7.06716377,18.558953 6.65063418,18.0820872 6.09960465,18.0448729 C5.54857511,18.0076587 5.07170931,18.4241883 5.03449507,18.9752178 Z" id="Combined-Shape" fill="#FF787B"></path>
        </g>
    </g>
</svg>