<?xml version="1.0" encoding="UTF-8"?>
<svg width="40px" height="40px" viewBox="0 0 40 40" version="1.1" xmlns="http://www.w3.org/2000/svg" xmlns:xlink="http://www.w3.org/1999/xlink">
    <!-- Generator: Sketch 54.1 (76490) - https://sketchapp.com -->
    <title>icon_buttom_deal_n</title>
    <desc>Created with Sketch.</desc>
    <g id="主页" stroke="none" stroke-width="1" fill="none" fill-rule="evenodd">
        <g id="icon_buttom_deal_n">
            <rect id="Rectangle-12" fill-rule="nonzero" x="0" y="0" width="40" height="40"></rect>
            <circle id="Oval" stroke="#000000" stroke-width="2" cx="20" cy="20" r="19"></circle>
            <path d="M22.4142136,17 L26,17 C26.5522847,17 27,17.4477153 27,18 C27,18.5522847 26.5522847,19 26,19 L21,19 L21,23 L26,23 C26.5522847,23 27,23.4477153 27,24 C27,24.5522847 26.5522847,25 26,25 L21,25 L21,30 C21,30.5522847 20.5522847,31 20,31 C19.4477153,31 19,30.5522847 19,30 L19,25 L14,25 C13.4477153,25 13,24.5522847 13,24 C13,23.4477153 13.4477153,23 14,23 L19,23 L19,19 L14,19 C13.4477153,19 13,18.5522847 13,18 C13,17.4477153 13.4477153,17 14,17 L17.5857864,17 L13.2928932,12.7071068 C12.9023689,12.3165825 12.9023689,11.6834175 13.2928932,11.2928932 C13.6834175,10.9023689 14.3165825,10.9023689 14.7071068,11.2928932 L20,16.5857864 L25.2928932,11.2928932 C25.6834175,10.9023689 26.3165825,10.9023689 26.7071068,11.2928932 C27.0976311,11.6834175 27.0976311,12.3165825 26.7071068,12.7071068 L22.4142136,17 Z" id="Combined-Shape" fill="#000000"></path>
            <path d="M9.45249331,9.33462878 C9.84516883,8.94626763 10.4783241,8.94976511 10.8666853,9.34244063 C11.2550465,9.73511615 11.251549,10.3682715 10.8588735,10.7566326 C9.53585834,12.0651116 8.50510224,13.6422624 7.84375686,15.382191 C7.64753077,15.8984407 7.06995502,16.1578711 6.5537053,15.961645 C6.03745559,15.7654189 5.77802518,15.1878432 5.97425126,14.6715934 C6.73772728,12.6629702 7.92683953,10.8435201 9.45249331,9.33462878 Z M5.03449507,18.9752178 C5.07170931,18.4241883 5.54857511,18.0076587 6.09960465,18.0448729 C6.65063418,18.0820872 7.06716377,18.558953 7.02994952,19.1099825 C7.01001427,19.4051628 7,19.7019398 7,20 C7,20.5522847 6.55228475,21 6,21 C5.44771525,21 5,20.5522847 5,20 C5,19.6569706 5.01153094,19.3152465 5.03449507,18.9752178 Z" id="Shape" fill="#000000" fill-rule="nonzero"></path>
        </g>
    </g>
</svg>