<?xml version="1.0" encoding="UTF-8"?>
<svg width="40px" height="40px" viewBox="0 0 40 40" version="1.1" xmlns="http://www.w3.org/2000/svg" xmlns:xlink="http://www.w3.org/1999/xlink">
    <!-- Generator: Sketch 54.1 (76490) - https://sketchapp.com -->
    <title>icon_buttom_home_s</title>
    <desc>Created with Sketch.</desc>
    <g id="主页" stroke="none" stroke-width="1" fill="none" fill-rule="evenodd">
        <g id="icon_buttom_home_s" fill-rule="nonzero">
            <rect id="Rectangle-12" x="0" y="0" width="40" height="40"></rect>
            <path d="M0.426537656,13.7014236 L19.4265377,0.401423641 C19.7708578,0.160399535 20.2291422,0.160399535 20.5734623,0.401423641 L39.5734623,13.7014236 C39.840789,13.8885523 40,14.1943418 40,14.5206556 L40,39 C40,39.5522847 39.5522847,40 39,40 L25,40 C24.4477153,40 24,39.5522847 24,39 L24,33 C24,32.4477153 23.5522847,32 23,32 L17,32 C16.4477153,32 16,32.4477153 16,33 L16,39 C16,39.5522847 15.5522847,40 15,40 L1,40 C0.44771525,40 6.76353751e-17,39.5522847 0,39 L0,14.5206556 C-3.99619146e-17,14.1943418 0.159210978,13.8885523 0.426537656,13.7014236 Z M14.5299989,12.8479983 C14.9983355,12.555288 15.1407086,11.9383376 14.8479983,11.4700011 C14.555288,11.0016645 13.9383376,10.8592914 13.4700011,11.1520017 L5.47000106,16.1520017 C5.1776197,16.33474 5,16.65521 5,17 L5,26 C5,26.5522847 5.44771525,27 6,27 C6.55228475,27 7,26.5522847 7,26 L7,17.5542476 L14.5299989,12.8479983 Z" id="Combined-Shape" fill="#FF787B"></path>
        </g>
    </g>
</svg>