<?xml version="1.0" encoding="UTF-8"?>
<svg width="40px" height="40px" viewBox="0 0 40 40" version="1.1" xmlns="http://www.w3.org/2000/svg" xmlns:xlink="http://www.w3.org/1999/xlink">
    <!-- Generator: Sketch 54.1 (76490) - https://sketchapp.com -->
    <title>icon_buttom_market_n</title>
    <desc>Created with Sketch.</desc>
    <g id="主页" stroke="none" stroke-width="1" fill="none" fill-rule="evenodd">
        <g id="icon_buttom_market_n">
            <rect id="Rectangle-12" fill-rule="nonzero" x="0" y="0" width="40" height="40"></rect>
            <path d="M25,22 L24,22 C22.3431458,22 21,20.6568542 21,19 L21,15 C21,13.3431458 22.3431458,12 24,12 L25,12 L25,9 C25,8.44771525 25.4477153,8 26,8 C26.5522847,8 27,8.44771525 27,9 L27,12 L28,12 C29.6568542,12 31,13.3431458 31,15 L31,19 C31,20.6568542 29.6568542,22 28,22 L27,22 L27,25 C27,25.5522847 26.5522847,26 26,26 C25.4477153,26 25,25.5522847 25,25 L25,22 Z M13,28 L12,28 C10.3431458,28 9,26.6568542 9,25 L9,21 C9,19.3431458 10.3431458,18 12,18 L13,18 L13,15 C13,14.4477153 13.4477153,14 14,14 C14.5522847,14 15,14.4477153 15,15 L15,18 L16,18 C17.6568542,18 19,19.3431458 19,21 L19,25 C19,26.6568542 17.6568542,28 16,28 L15,28 L15,31 C15,31.5522847 14.5522847,32 14,32 C13.4477153,32 13,31.5522847 13,31 L13,28 Z M12,20 C11.4477153,20 11,20.4477153 11,21 L11,25 C11,25.5522847 11.4477153,26 12,26 L16,26 C16.5522847,26 17,25.5522847 17,25 L17,21 C17,20.4477153 16.5522847,20 16,20 L12,20 Z M24,14 C23.4477153,14 23,14.4477153 23,15 L23,19 C23,19.5522847 23.4477153,20 24,20 L28,20 C28.5522847,20 29,19.5522847 29,19 L29,15 C29,14.4477153 28.5522847,14 28,14 L24,14 Z" id="Combined-Shape" fill="#000000" fill-rule="nonzero"></path>
            <circle id="Oval" stroke="#000000" stroke-width="2" cx="20" cy="20" r="19"></circle>
        </g>
    </g>
</svg>