<?xml version="1.0" encoding="UTF-8"?>
<svg width="40px" height="40px" viewBox="0 0 40 40" version="1.1" xmlns="http://www.w3.org/2000/svg" xmlns:xlink="http://www.w3.org/1999/xlink">
    <!-- Generator: Sketch 54.1 (76490) - https://sketchapp.com -->
    <title>icon_buttom_market_s</title>
    <desc>Created with Sketch.</desc>
    <g id="主页" stroke="none" stroke-width="1" fill="none" fill-rule="evenodd">
        <g id="icon_buttom_market_s" fill-rule="nonzero">
            <rect id="Rectangle-12" x="0" y="0" width="40" height="40"></rect>
            <path d="M20,40 C8.954305,40 0,31.045695 0,20 C0,8.954305 8.954305,0 20,0 C31.045695,0 40,8.954305 40,20 C40,31.045695 31.045695,40 20,40 Z M25,22 L25,25 C25,25.5522847 25.4477153,26 26,26 C26.5522847,26 27,25.5522847 27,25 L27,22 L28,22 C29.6568542,22 31,20.6568542 31,19 L31,15 C31,13.3431458 29.6568542,12 28,12 L27,12 L27,9 C27,8.44771525 26.5522847,8 26,8 C25.4477153,8 25,8.44771525 25,9 L25,12 L24,12 C22.3431458,12 21,13.3431458 21,15 L21,19 C21,20.6568542 22.3431458,22 24,22 L25,22 Z M13,28 L13,31 C13,31.5522847 13.4477153,32 14,32 C14.5522847,32 15,31.5522847 15,31 L15,28 L16,28 C17.6568542,28 19,26.6568542 19,25 L19,21 C19,19.3431458 17.6568542,18 16,18 L15,18 L15,15 C15,14.4477153 14.5522847,14 14,14 C13.4477153,14 13,14.4477153 13,15 L13,18 L12,18 C10.3431458,18 9,19.3431458 9,21 L9,25 C9,26.6568542 10.3431458,28 12,28 L13,28 Z M12,20 L16,20 C16.5522847,20 17,20.4477153 17,21 L17,25 C17,25.5522847 16.5522847,26 16,26 L12,26 C11.4477153,26 11,25.5522847 11,25 L11,21 C11,20.4477153 11.4477153,20 12,20 Z M24,14 L28,14 C28.5522847,14 29,14.4477153 29,15 L29,19 C29,19.5522847 28.5522847,20 28,20 L24,20 C23.4477153,20 23,19.5522847 23,19 L23,15 C23,14.4477153 23.4477153,14 24,14 Z" id="Combined-Shape" fill="#FF787B"></path>
        </g>
    </g>
</svg>