<?xml version="1.0" encoding="UTF-8"?>
<svg width="40px" height="40px" viewBox="0 0 40 40" version="1.1" xmlns="http://www.w3.org/2000/svg" xmlns:xlink="http://www.w3.org/1999/xlink">
    <!-- Generator: Sketch 54.1 (76490) - https://sketchapp.com -->
    <title>icon_buttom_deal_s</title>
    <desc>Created with Sketch.</desc>
    <g id="主页" stroke="none" stroke-width="1" fill="none" fill-rule="evenodd">
        <g id="icon_buttom_deal_s" fill-rule="nonzero">
            <rect id="Rectangle-23" x="0" y="0" width="40" height="40"></rect>
            <path d="M14.5791076,22.708679 C10.6753574,20.7286255 8,16.6767444 8,12 C8,5.372583 13.372583,0 20,0 C26.627417,0 32,5.372583 32,12 C32,16.6768894 29.3244767,20.7288768 25.4205292,22.7088632 C31.9131954,24.4412834 37.2726068,29.2222169 39.6745292,35.6419631 C40.1135275,36.8152972 40.0922661,37.9399191 39.6077528,38.7941076 C39.103318,39.6834174 38.2380434,40 36.9680175,40 L2.99303966,40 C1.79324421,40 0.587633721,39.1011409 0.299852389,38.1336119 C0.279302373,38.065768 0.279302373,38.065768 0.253856936,37.9835997 C0.00591373827,37.1783193 -0.0163394255,36.559464 0.321263396,35.6532193 C2.71436264,29.2292996 8.07919053,24.4423199 14.5791076,22.708679 Z M20,4 C15.581722,4 12,7.581722 12,12 C12,12.5522847 12.4477153,13 13,13 C13.5522847,13 14,12.5522847 14,12 C14,8.6862915 16.6862915,6 20,6 C20.5522847,6 21,5.55228475 21,5 C21,4.44771525 20.5522847,4 20,4 Z" id="Combined-Shape" fill="#FF787B"></path>
        </g>
    </g>
</svg>